%TF.GenerationSoftware,KiCad,Pcbnew,7.0.7*%
%TF.CreationDate,2023-12-21T12:45:23+01:00*%
%TF.ProjectId,IR range extender v0r1,49522072-616e-4676-9520-657874656e64,rev?*%
%TF.SameCoordinates,Original*%
%TF.FileFunction,Soldermask,Top*%
%TF.FilePolarity,Negative*%
%FSLAX46Y46*%
G04 Gerber Fmt 4.6, Leading zero omitted, Abs format (unit mm)*
G04 Created by KiCad (PCBNEW 7.0.7) date 2023-12-21 12:45:23*
%MOMM*%
%LPD*%
G01*
G04 APERTURE LIST*
G04 Aperture macros list*
%AMRoundRect*
0 Rectangle with rounded corners*
0 $1 Rounding radius*
0 $2 $3 $4 $5 $6 $7 $8 $9 X,Y pos of 4 corners*
0 Add a 4 corners polygon primitive as box body*
4,1,4,$2,$3,$4,$5,$6,$7,$8,$9,$2,$3,0*
0 Add four circle primitives for the rounded corners*
1,1,$1+$1,$2,$3*
1,1,$1+$1,$4,$5*
1,1,$1+$1,$6,$7*
1,1,$1+$1,$8,$9*
0 Add four rect primitives between the rounded corners*
20,1,$1+$1,$2,$3,$4,$5,0*
20,1,$1+$1,$4,$5,$6,$7,0*
20,1,$1+$1,$6,$7,$8,$9,0*
20,1,$1+$1,$8,$9,$2,$3,0*%
G04 Aperture macros list end*
%ADD10RoundRect,0.200000X0.200000X0.275000X-0.200000X0.275000X-0.200000X-0.275000X0.200000X-0.275000X0*%
%ADD11RoundRect,0.102000X0.500000X0.725000X-0.500000X0.725000X-0.500000X-0.725000X0.500000X-0.725000X0*%
%ADD12RoundRect,0.102000X0.725000X-0.500000X0.725000X0.500000X-0.725000X0.500000X-0.725000X-0.500000X0*%
%ADD13RoundRect,0.250000X0.450000X-0.262500X0.450000X0.262500X-0.450000X0.262500X-0.450000X-0.262500X0*%
%ADD14RoundRect,0.102000X-0.500000X-0.725000X0.500000X-0.725000X0.500000X0.725000X-0.500000X0.725000X0*%
%ADD15RoundRect,0.102000X-0.675000X-0.375000X0.675000X-0.375000X0.675000X0.375000X-0.675000X0.375000X0*%
%ADD16R,1.700000X1.700000*%
%ADD17O,1.700000X1.700000*%
%ADD18RoundRect,0.102000X-0.725000X0.500000X-0.725000X-0.500000X0.725000X-0.500000X0.725000X0.500000X0*%
%ADD19RoundRect,0.150000X0.512500X0.150000X-0.512500X0.150000X-0.512500X-0.150000X0.512500X-0.150000X0*%
%ADD20RoundRect,0.102000X-0.375000X0.675000X-0.375000X-0.675000X0.375000X-0.675000X0.375000X0.675000X0*%
%ADD21C,0.889000*%
%ADD22R,0.990600X1.600200*%
%ADD23RoundRect,0.200000X-0.200000X-0.275000X0.200000X-0.275000X0.200000X0.275000X-0.200000X0.275000X0*%
%ADD24RoundRect,0.150000X-0.512500X-0.150000X0.512500X-0.150000X0.512500X0.150000X-0.512500X0.150000X0*%
%ADD25RoundRect,0.250000X-0.787500X-1.025000X0.787500X-1.025000X0.787500X1.025000X-0.787500X1.025000X0*%
%ADD26RoundRect,0.102000X0.375000X-0.675000X0.375000X0.675000X-0.375000X0.675000X-0.375000X-0.675000X0*%
%ADD27RoundRect,0.102000X0.675000X0.375000X-0.675000X0.375000X-0.675000X-0.375000X0.675000X-0.375000X0*%
%ADD28RoundRect,0.200000X0.275000X-0.200000X0.275000X0.200000X-0.275000X0.200000X-0.275000X-0.200000X0*%
G04 APERTURE END LIST*
D10*
%TO.C,R5*%
X88600000Y-84400000D03*
X86950000Y-84400000D03*
%TD*%
D11*
%TO.C,D3*%
X77000000Y-80400000D03*
X75400000Y-80400000D03*
%TD*%
D12*
%TO.C,D2*%
X73200000Y-80200000D03*
X73200000Y-78600000D03*
%TD*%
D13*
%TO.C,R4*%
X68800000Y-81400000D03*
X68800000Y-79575000D03*
%TD*%
D14*
%TO.C,D1*%
X75400000Y-78200000D03*
X77000000Y-78200000D03*
%TD*%
D15*
%TO.C,D5*%
X105975000Y-77400000D03*
X109775000Y-77400000D03*
%TD*%
D16*
%TO.C,J2*%
X63660000Y-84350000D03*
D17*
X66200000Y-84350000D03*
X68740000Y-84350000D03*
X71280000Y-84350000D03*
X73820000Y-84350000D03*
X76360000Y-84350000D03*
X78900000Y-84350000D03*
X81440000Y-84350000D03*
%TD*%
D18*
%TO.C,D4*%
X79400000Y-78600000D03*
X79400000Y-80200000D03*
%TD*%
D13*
%TO.C,R7*%
X122800000Y-81225000D03*
X122800000Y-79400000D03*
%TD*%
D19*
%TO.C,Q2*%
X95800000Y-80400000D03*
X95800000Y-78500000D03*
X93525000Y-79450000D03*
%TD*%
D16*
%TO.C,J1*%
X99060000Y-84200000D03*
D17*
X101600000Y-84200000D03*
X104140000Y-84200000D03*
X106680000Y-84200000D03*
X109220000Y-84200000D03*
X111760000Y-84200000D03*
X114300000Y-84200000D03*
X116840000Y-84200000D03*
X119380000Y-84200000D03*
X121920000Y-84200000D03*
%TD*%
D13*
%TO.C,R2*%
X64800000Y-81400000D03*
X64800000Y-79575000D03*
%TD*%
D20*
%TO.C,D8*%
X112575000Y-77200000D03*
X112575000Y-81000000D03*
%TD*%
D21*
%TO.C,SW1*%
X87700002Y-87600000D03*
X94499998Y-87600000D03*
D22*
X88600000Y-86400000D03*
X91100000Y-86400000D03*
X93600000Y-86400000D03*
X88600000Y-88800000D03*
X91100000Y-88800000D03*
X93600000Y-88800000D03*
%TD*%
D13*
%TO.C,R11*%
X118800000Y-81225000D03*
X118800000Y-79400000D03*
%TD*%
%TO.C,R9*%
X120800000Y-81225000D03*
X120800000Y-79400000D03*
%TD*%
D23*
%TO.C,R8*%
X93550000Y-84400000D03*
X95200000Y-84400000D03*
%TD*%
D13*
%TO.C,R3*%
X66800000Y-81400000D03*
X66800000Y-79575000D03*
%TD*%
D24*
%TO.C,Q1*%
X85962500Y-78450000D03*
X85962500Y-80350000D03*
X88237500Y-79400000D03*
%TD*%
D13*
%TO.C,R1*%
X62800000Y-81400000D03*
X62800000Y-79575000D03*
%TD*%
D25*
%TO.C,C1*%
X104287500Y-88600000D03*
X110512500Y-88600000D03*
%TD*%
D26*
%TO.C,D6*%
X102975000Y-81000000D03*
X102975000Y-77200000D03*
%TD*%
D27*
%TO.C,D7*%
X109775000Y-80600000D03*
X105975000Y-80600000D03*
%TD*%
D28*
%TO.C,R6*%
X83837500Y-80400000D03*
X83837500Y-78750000D03*
%TD*%
%TO.C,R10*%
X98200000Y-80300000D03*
X98200000Y-78650000D03*
%TD*%
D13*
%TO.C,R12*%
X116800000Y-81225000D03*
X116800000Y-79400000D03*
%TD*%
M02*
