%TF.GenerationSoftware,KiCad,Pcbnew,7.0.7*%
%TF.CreationDate,2023-12-21T12:45:23+01:00*%
%TF.ProjectId,IR range extender v0r1,49522072-616e-4676-9520-657874656e64,rev?*%
%TF.SameCoordinates,Original*%
%TF.FileFunction,Copper,L1,Top*%
%TF.FilePolarity,Positive*%
%FSLAX46Y46*%
G04 Gerber Fmt 4.6, Leading zero omitted, Abs format (unit mm)*
G04 Created by KiCad (PCBNEW 7.0.7) date 2023-12-21 12:45:23*
%MOMM*%
%LPD*%
G01*
G04 APERTURE LIST*
G04 Aperture macros list*
%AMRoundRect*
0 Rectangle with rounded corners*
0 $1 Rounding radius*
0 $2 $3 $4 $5 $6 $7 $8 $9 X,Y pos of 4 corners*
0 Add a 4 corners polygon primitive as box body*
4,1,4,$2,$3,$4,$5,$6,$7,$8,$9,$2,$3,0*
0 Add four circle primitives for the rounded corners*
1,1,$1+$1,$2,$3*
1,1,$1+$1,$4,$5*
1,1,$1+$1,$6,$7*
1,1,$1+$1,$8,$9*
0 Add four rect primitives between the rounded corners*
20,1,$1+$1,$2,$3,$4,$5,0*
20,1,$1+$1,$4,$5,$6,$7,0*
20,1,$1+$1,$6,$7,$8,$9,0*
20,1,$1+$1,$8,$9,$2,$3,0*%
G04 Aperture macros list end*
%TA.AperFunction,SMDPad,CuDef*%
%ADD10RoundRect,0.200000X0.200000X0.275000X-0.200000X0.275000X-0.200000X-0.275000X0.200000X-0.275000X0*%
%TD*%
%TA.AperFunction,SMDPad,CuDef*%
%ADD11R,1.000000X1.450000*%
%TD*%
%TA.AperFunction,SMDPad,CuDef*%
%ADD12R,1.450000X1.000000*%
%TD*%
%TA.AperFunction,SMDPad,CuDef*%
%ADD13RoundRect,0.250000X0.450000X-0.262500X0.450000X0.262500X-0.450000X0.262500X-0.450000X-0.262500X0*%
%TD*%
%TA.AperFunction,SMDPad,CuDef*%
%ADD14R,1.350000X0.750000*%
%TD*%
%TA.AperFunction,ComponentPad*%
%ADD15R,1.700000X1.700000*%
%TD*%
%TA.AperFunction,ComponentPad*%
%ADD16O,1.700000X1.700000*%
%TD*%
%TA.AperFunction,SMDPad,CuDef*%
%ADD17RoundRect,0.150000X0.512500X0.150000X-0.512500X0.150000X-0.512500X-0.150000X0.512500X-0.150000X0*%
%TD*%
%TA.AperFunction,SMDPad,CuDef*%
%ADD18R,0.750000X1.350000*%
%TD*%
%TA.AperFunction,SMDPad,CuDef*%
%ADD19R,0.990600X1.600200*%
%TD*%
%TA.AperFunction,SMDPad,CuDef*%
%ADD20RoundRect,0.200000X-0.200000X-0.275000X0.200000X-0.275000X0.200000X0.275000X-0.200000X0.275000X0*%
%TD*%
%TA.AperFunction,SMDPad,CuDef*%
%ADD21RoundRect,0.150000X-0.512500X-0.150000X0.512500X-0.150000X0.512500X0.150000X-0.512500X0.150000X0*%
%TD*%
%TA.AperFunction,SMDPad,CuDef*%
%ADD22RoundRect,0.250000X-0.787500X-1.025000X0.787500X-1.025000X0.787500X1.025000X-0.787500X1.025000X0*%
%TD*%
%TA.AperFunction,SMDPad,CuDef*%
%ADD23RoundRect,0.200000X0.275000X-0.200000X0.275000X0.200000X-0.275000X0.200000X-0.275000X-0.200000X0*%
%TD*%
%TA.AperFunction,ViaPad*%
%ADD24C,0.800000*%
%TD*%
%TA.AperFunction,Conductor*%
%ADD25C,0.600000*%
%TD*%
%TA.AperFunction,Conductor*%
%ADD26C,0.500000*%
%TD*%
%TA.AperFunction,Conductor*%
%ADD27C,0.400000*%
%TD*%
%TA.AperFunction,Conductor*%
%ADD28C,0.300000*%
%TD*%
%TA.AperFunction,Conductor*%
%ADD29C,0.250000*%
%TD*%
G04 APERTURE END LIST*
D10*
%TO.P,R5,1*%
%TO.N,WIDE*%
X88600000Y-84400000D03*
%TO.P,R5,2*%
%TO.N,Net-(Q1-B)*%
X86950000Y-84400000D03*
%TD*%
D11*
%TO.P,D3,1,K*%
%TO.N,Net-(D1-K)*%
X77000000Y-80400000D03*
%TO.P,D3,2,A*%
%TO.N,Net-(D3-A)*%
X75400000Y-80400000D03*
%TD*%
D12*
%TO.P,D2,1,K*%
%TO.N,Net-(D1-K)*%
X73200000Y-80200000D03*
%TO.P,D2,2,A*%
%TO.N,Net-(D2-A)*%
X73200000Y-78600000D03*
%TD*%
D13*
%TO.P,R4,1*%
%TO.N,+3.3V*%
X68800000Y-81400000D03*
%TO.P,R4,2*%
%TO.N,Net-(D4-A)*%
X68800000Y-79575000D03*
%TD*%
D11*
%TO.P,D1,1,K*%
%TO.N,Net-(D1-K)*%
X75400000Y-78200000D03*
%TO.P,D1,2,A*%
%TO.N,Net-(D1-A)*%
X77000000Y-78200000D03*
%TD*%
D14*
%TO.P,D5,1,K*%
%TO.N,Net-(D5-K)*%
X105975000Y-77400000D03*
%TO.P,D5,2,A*%
%TO.N,Net-(D5-A)*%
X109775000Y-77400000D03*
%TD*%
D15*
%TO.P,J2,1,Pin_1*%
%TO.N,unconnected-(J2-Pin_1-Pad1)*%
X63660000Y-84350000D03*
D16*
%TO.P,J2,2,Pin_2*%
%TO.N,A7*%
X66200000Y-84350000D03*
%TO.P,J2,3,Pin_3*%
%TO.N,unconnected-(J2-Pin_3-Pad3)*%
X68740000Y-84350000D03*
%TO.P,J2,4,Pin_4*%
%TO.N,unconnected-(J2-Pin_4-Pad4)*%
X71280000Y-84350000D03*
%TO.P,J2,5,Pin_5*%
%TO.N,unconnected-(J2-Pin_5-Pad5)*%
X73820000Y-84350000D03*
%TO.P,J2,6,Pin_6*%
%TO.N,unconnected-(J2-Pin_6-Pad6)*%
X76360000Y-84350000D03*
%TO.P,J2,7,Pin_7*%
%TO.N,unconnected-(J2-Pin_7-Pad7)*%
X78900000Y-84350000D03*
%TO.P,J2,8,Pin_8*%
%TO.N,GND*%
X81440000Y-84350000D03*
%TD*%
D12*
%TO.P,D4,1,K*%
%TO.N,Net-(D1-K)*%
X79400000Y-78600000D03*
%TO.P,D4,2,A*%
%TO.N,Net-(D4-A)*%
X79400000Y-80200000D03*
%TD*%
D13*
%TO.P,R7,1*%
%TO.N,+3.3V*%
X122800000Y-81225000D03*
%TO.P,R7,2*%
%TO.N,Net-(D5-A)*%
X122800000Y-79400000D03*
%TD*%
D17*
%TO.P,Q2,1,B*%
%TO.N,Net-(Q2-B)*%
X95800000Y-80400000D03*
%TO.P,Q2,2,E*%
%TO.N,GND*%
X95800000Y-78500000D03*
%TO.P,Q2,3,C*%
%TO.N,Net-(D5-K)*%
X93525000Y-79450000D03*
%TD*%
D15*
%TO.P,J1,1,Pin_1*%
%TO.N,+3.3V*%
X99060000Y-84200000D03*
D16*
%TO.P,J1,2,Pin_2*%
%TO.N,unconnected-(J1-Pin_2-Pad2)*%
X101600000Y-84200000D03*
%TO.P,J1,3,Pin_3*%
%TO.N,GND*%
X104140000Y-84200000D03*
%TO.P,J1,4,Pin_4*%
%TO.N,unconnected-(J1-Pin_4-Pad4)*%
X106680000Y-84200000D03*
%TO.P,J1,5,Pin_5*%
%TO.N,unconnected-(J1-Pin_5-Pad5)*%
X109220000Y-84200000D03*
%TO.P,J1,6,Pin_6*%
%TO.N,unconnected-(J1-Pin_6-Pad6)*%
X111760000Y-84200000D03*
%TO.P,J1,7,Pin_7*%
%TO.N,unconnected-(J1-Pin_7-Pad7)*%
X114300000Y-84200000D03*
%TO.P,J1,8,Pin_8*%
%TO.N,unconnected-(J1-Pin_8-Pad8)*%
X116840000Y-84200000D03*
%TO.P,J1,9,Pin_9*%
%TO.N,unconnected-(J1-Pin_9-Pad9)*%
X119380000Y-84200000D03*
%TO.P,J1,10,Pin_10*%
%TO.N,GND*%
X121920000Y-84200000D03*
%TD*%
D13*
%TO.P,R2,1*%
%TO.N,+3.3V*%
X64800000Y-81400000D03*
%TO.P,R2,2*%
%TO.N,Net-(D2-A)*%
X64800000Y-79575000D03*
%TD*%
D18*
%TO.P,D8,1,K*%
%TO.N,Net-(D5-K)*%
X112575000Y-77200000D03*
%TO.P,D8,2,A*%
%TO.N,Net-(D8-A)*%
X112575000Y-81000000D03*
%TD*%
D19*
%TO.P,SW1,1,A*%
%TO.N,WIDE*%
X88600000Y-86400000D03*
%TO.P,SW1,2,B*%
%TO.N,A7*%
X91100000Y-86400000D03*
%TO.P,SW1,3,C*%
%TO.N,NARROW*%
X93600000Y-86400000D03*
%TO.P,SW1,4,A*%
%TO.N,WIDE*%
X88600000Y-88800000D03*
%TO.P,SW1,5,B*%
%TO.N,A7*%
X91100000Y-88800000D03*
%TO.P,SW1,6,C*%
%TO.N,NARROW*%
X93600000Y-88800000D03*
%TD*%
D13*
%TO.P,R11,1*%
%TO.N,+3.3V*%
X118800000Y-81225000D03*
%TO.P,R11,2*%
%TO.N,Net-(D7-A)*%
X118800000Y-79400000D03*
%TD*%
%TO.P,R9,1*%
%TO.N,+3.3V*%
X120800000Y-81225000D03*
%TO.P,R9,2*%
%TO.N,Net-(D6-A)*%
X120800000Y-79400000D03*
%TD*%
D20*
%TO.P,R8,1*%
%TO.N,NARROW*%
X93550000Y-84400000D03*
%TO.P,R8,2*%
%TO.N,Net-(Q2-B)*%
X95200000Y-84400000D03*
%TD*%
D13*
%TO.P,R3,1*%
%TO.N,+3.3V*%
X66800000Y-81400000D03*
%TO.P,R3,2*%
%TO.N,Net-(D3-A)*%
X66800000Y-79575000D03*
%TD*%
D21*
%TO.P,Q1,1,B*%
%TO.N,Net-(Q1-B)*%
X85962500Y-78450000D03*
%TO.P,Q1,2,E*%
%TO.N,GND*%
X85962500Y-80350000D03*
%TO.P,Q1,3,C*%
%TO.N,Net-(D1-K)*%
X88237500Y-79400000D03*
%TD*%
D13*
%TO.P,R1,1*%
%TO.N,+3.3V*%
X62800000Y-81400000D03*
%TO.P,R1,2*%
%TO.N,Net-(D1-A)*%
X62800000Y-79575000D03*
%TD*%
D22*
%TO.P,C1,1*%
%TO.N,+3.3V*%
X104287500Y-88600000D03*
%TO.P,C1,2*%
%TO.N,GND*%
X110512500Y-88600000D03*
%TD*%
D18*
%TO.P,D6,1,K*%
%TO.N,Net-(D5-K)*%
X102975000Y-81000000D03*
%TO.P,D6,2,A*%
%TO.N,Net-(D6-A)*%
X102975000Y-77200000D03*
%TD*%
D14*
%TO.P,D7,1,K*%
%TO.N,Net-(D5-K)*%
X109775000Y-80600000D03*
%TO.P,D7,2,A*%
%TO.N,Net-(D7-A)*%
X105975000Y-80600000D03*
%TD*%
D23*
%TO.P,R6,1*%
%TO.N,Net-(Q1-B)*%
X83837500Y-80400000D03*
%TO.P,R6,2*%
%TO.N,GND*%
X83837500Y-78750000D03*
%TD*%
%TO.P,R10,1*%
%TO.N,Net-(Q2-B)*%
X98200000Y-80300000D03*
%TO.P,R10,2*%
%TO.N,GND*%
X98200000Y-78650000D03*
%TD*%
D13*
%TO.P,R12,1*%
%TO.N,+3.3V*%
X116800000Y-81225000D03*
%TO.P,R12,2*%
%TO.N,Net-(D8-A)*%
X116800000Y-79400000D03*
%TD*%
D24*
%TO.N,+3.3V*%
X68600000Y-82500000D03*
X106200000Y-88600000D03*
X117000000Y-82500000D03*
%TO.N,Net-(Q2-B)*%
X94400000Y-80300000D03*
X99400000Y-80300000D03*
%TD*%
D25*
%TO.N,+3.3V*%
X68800000Y-81400000D02*
X68800000Y-82300000D01*
X62800000Y-81400000D02*
X64800000Y-81400000D01*
X104287500Y-88600000D02*
X106200000Y-88600000D01*
X118800000Y-81225000D02*
X116800000Y-81225000D01*
X68800000Y-82300000D02*
X68600000Y-82500000D01*
X116800000Y-81225000D02*
X116800000Y-82300000D01*
X101150000Y-85550000D02*
X100410000Y-85550000D01*
X100410000Y-85550000D02*
X99060000Y-84200000D01*
X64800000Y-81400000D02*
X66800000Y-81400000D01*
X104200000Y-88600000D02*
X101150000Y-85550000D01*
X122800000Y-81225000D02*
X120800000Y-81225000D01*
X116800000Y-82300000D02*
X117000000Y-82500000D01*
X104287500Y-88600000D02*
X104200000Y-88600000D01*
X66800000Y-81400000D02*
X68800000Y-81400000D01*
X118800000Y-81225000D02*
X120800000Y-81225000D01*
%TO.N,GND*%
X85912500Y-80400000D02*
X85962500Y-80350000D01*
%TO.N,A7*%
X91100000Y-88800000D02*
X91100000Y-86400000D01*
D26*
X66200000Y-84350000D02*
X71900100Y-90050100D01*
X89849900Y-90050100D02*
X91100000Y-88800000D01*
X71900100Y-90050100D02*
X89849900Y-90050100D01*
D27*
%TO.N,Net-(D1-K)*%
X77000000Y-79800000D02*
X76525000Y-79325000D01*
D25*
X80350000Y-77650000D02*
X79400000Y-78600000D01*
D27*
X73400000Y-80200000D02*
X75400000Y-78200000D01*
X76300000Y-79325000D02*
X75400000Y-78425000D01*
X73200000Y-80200000D02*
X73400000Y-80200000D01*
D25*
X88237500Y-79143261D02*
X86744239Y-77650000D01*
X86744239Y-77650000D02*
X80350000Y-77650000D01*
X88237500Y-79400000D02*
X88237500Y-79143261D01*
D27*
X76525000Y-79325000D02*
X76300000Y-79325000D01*
X79400000Y-78600000D02*
X78800000Y-78600000D01*
X75400000Y-78425000D02*
X75400000Y-78200000D01*
X77000000Y-80400000D02*
X77000000Y-79800000D01*
X78800000Y-78600000D02*
X77000000Y-80400000D01*
D25*
%TO.N,Net-(Q1-B)*%
X85962500Y-78768261D02*
X85962500Y-78450000D01*
X87125000Y-80825000D02*
X87125000Y-79930761D01*
X86950000Y-84400000D02*
X86950000Y-81000000D01*
D28*
X85787500Y-78450000D02*
X83837500Y-80400000D01*
D25*
X85962500Y-78450000D02*
X85787500Y-78450000D01*
X86950000Y-81000000D02*
X87125000Y-80825000D01*
X87125000Y-79930761D02*
X85962500Y-78768261D01*
%TO.N,Net-(D5-K)*%
X102375000Y-76025000D02*
X104600000Y-76025000D01*
X96962500Y-79980761D02*
X96962500Y-80819239D01*
X109775000Y-80600000D02*
X109775000Y-79564340D01*
X93575000Y-79400000D02*
X96381739Y-79400000D01*
X109775000Y-79564340D02*
X112139340Y-77200000D01*
X102100000Y-76300000D02*
X102375000Y-76025000D01*
X97343261Y-81200000D02*
X102775000Y-81200000D01*
X93525000Y-79450000D02*
X93575000Y-79400000D01*
X102975000Y-81000000D02*
X102100000Y-80125000D01*
X112139340Y-77200000D02*
X112575000Y-77200000D01*
X102775000Y-81200000D02*
X102975000Y-81000000D01*
X106575000Y-77400000D02*
X109775000Y-80600000D01*
X96381739Y-79400000D02*
X96962500Y-79980761D01*
X102100000Y-80125000D02*
X102100000Y-76300000D01*
X96962500Y-80819239D02*
X97343261Y-81200000D01*
X105975000Y-77400000D02*
X106575000Y-77400000D01*
X104600000Y-76025000D02*
X105975000Y-77400000D01*
D29*
%TO.N,Net-(Q2-B)*%
X95700000Y-80300000D02*
X95800000Y-80400000D01*
D26*
X95200000Y-81000000D02*
X95800000Y-80400000D01*
D29*
X98200000Y-80300000D02*
X99400000Y-80300000D01*
D26*
X95200000Y-84400000D02*
X95200000Y-81000000D01*
D29*
X94400000Y-80300000D02*
X95700000Y-80300000D01*
D25*
%TO.N,Net-(D1-A)*%
X62800000Y-79575000D02*
X66475000Y-75900000D01*
X66475000Y-75900000D02*
X76025000Y-75900000D01*
X77000000Y-76875000D02*
X77000000Y-78200000D01*
X76025000Y-75900000D02*
X77000000Y-76875000D01*
%TO.N,Net-(D2-A)*%
X64800000Y-79575000D02*
X67675000Y-76700000D01*
X72400000Y-76700000D02*
X73200000Y-77500000D01*
X67675000Y-76700000D02*
X72400000Y-76700000D01*
X73200000Y-77500000D02*
X73200000Y-78600000D01*
%TO.N,Net-(D3-A)*%
X70400000Y-77900000D02*
X71562500Y-79062500D01*
X68475000Y-77900000D02*
X70400000Y-77900000D01*
X66800000Y-79575000D02*
X68475000Y-77900000D01*
X71562500Y-80787500D02*
X71975000Y-81200000D01*
X71975000Y-81200000D02*
X74600000Y-81200000D01*
X71562500Y-79062500D02*
X71562500Y-80787500D01*
X74600000Y-81200000D02*
X75400000Y-80400000D01*
%TO.N,Net-(D4-A)*%
X77600000Y-82000000D02*
X79400000Y-80200000D01*
X71225000Y-82000000D02*
X77600000Y-82000000D01*
X68800000Y-79575000D02*
X71225000Y-82000000D01*
%TO.N,WIDE*%
X88600000Y-84400000D02*
X88600000Y-86400000D01*
X88694502Y-88705498D02*
X88694502Y-86494502D01*
X88600000Y-88800000D02*
X88694502Y-88705498D01*
X88694502Y-86494502D02*
X88600000Y-86400000D01*
%TO.N,Net-(D5-A)*%
X122800000Y-79400000D02*
X119425000Y-76025000D01*
X111150000Y-76025000D02*
X109775000Y-77400000D01*
X119425000Y-76025000D02*
X111150000Y-76025000D01*
%TO.N,NARROW*%
X93550000Y-86350000D02*
X93600000Y-86400000D01*
X93505498Y-86494502D02*
X93505498Y-88705498D01*
X93600000Y-86400000D02*
X93505498Y-86494502D01*
X93505498Y-88705498D02*
X93600000Y-88800000D01*
X93550000Y-84400000D02*
X93550000Y-86350000D01*
D26*
%TO.N,Net-(D6-A)*%
X108900000Y-82100000D02*
X107100000Y-80300000D01*
X110950000Y-81375000D02*
X110225000Y-82100000D01*
X110225000Y-82100000D02*
X108900000Y-82100000D01*
X120800000Y-79400000D02*
X119037500Y-77637500D01*
X107100000Y-79775000D02*
X105550000Y-78225000D01*
X115662500Y-77637500D02*
X114300000Y-79000000D01*
X104000000Y-78225000D02*
X102975000Y-77200000D01*
X105550000Y-78225000D02*
X104000000Y-78225000D01*
X114300000Y-79000000D02*
X111464340Y-79000000D01*
X110950000Y-79514340D02*
X110950000Y-81375000D01*
X107100000Y-80300000D02*
X107100000Y-79775000D01*
X119037500Y-77637500D02*
X115662500Y-77637500D01*
X111464340Y-79000000D02*
X110950000Y-79514340D01*
D25*
%TO.N,Net-(D7-A)*%
X111700000Y-81960660D02*
X110810660Y-82850000D01*
X118800000Y-79400000D02*
X118573160Y-79400000D01*
X114535660Y-79825000D02*
X111700000Y-79825000D01*
X117560660Y-78387500D02*
X115973160Y-78387500D01*
X110810660Y-82850000D02*
X108225000Y-82850000D01*
X108225000Y-82850000D02*
X105975000Y-80600000D01*
X115973160Y-78387500D02*
X114535660Y-79825000D01*
X118573160Y-79400000D02*
X117560660Y-78387500D01*
X111700000Y-79825000D02*
X111700000Y-81960660D01*
%TO.N,Net-(D8-A)*%
X112575000Y-81000000D02*
X115200000Y-81000000D01*
X115200000Y-81000000D02*
X116800000Y-79400000D01*
%TD*%
%TA.AperFunction,Conductor*%
%TO.N,GND*%
G36*
X66044923Y-75533166D02*
G01*
X66063375Y-75577714D01*
X66044923Y-75622262D01*
X62823638Y-78843548D01*
X62779090Y-78862000D01*
X62295734Y-78862000D01*
X62288526Y-78862675D01*
X62265302Y-78864853D01*
X62137118Y-78909707D01*
X62027850Y-78990350D01*
X61947207Y-79099618D01*
X61902353Y-79227802D01*
X61900783Y-79244550D01*
X61899516Y-79258069D01*
X61899500Y-79258237D01*
X61899500Y-79891762D01*
X61902353Y-79922197D01*
X61920655Y-79974500D01*
X61947207Y-80050382D01*
X62027850Y-80159650D01*
X62137118Y-80240293D01*
X62265301Y-80285146D01*
X62295734Y-80288000D01*
X62295740Y-80288000D01*
X63304260Y-80288000D01*
X63304266Y-80288000D01*
X63334699Y-80285146D01*
X63462882Y-80240293D01*
X63572150Y-80159650D01*
X63652793Y-80050382D01*
X63697646Y-79922199D01*
X63700500Y-79891766D01*
X63700500Y-79408408D01*
X63718951Y-79363862D01*
X63791953Y-79290860D01*
X63836500Y-79272409D01*
X63881048Y-79290861D01*
X63899500Y-79335409D01*
X63899500Y-79891762D01*
X63902353Y-79922197D01*
X63920655Y-79974500D01*
X63947207Y-80050382D01*
X64027850Y-80159650D01*
X64137118Y-80240293D01*
X64265301Y-80285146D01*
X64295734Y-80288000D01*
X64295740Y-80288000D01*
X65304260Y-80288000D01*
X65304266Y-80288000D01*
X65334699Y-80285146D01*
X65462882Y-80240293D01*
X65572150Y-80159650D01*
X65652793Y-80050382D01*
X65697646Y-79922199D01*
X65700500Y-79891766D01*
X65700500Y-79408408D01*
X65718952Y-79363861D01*
X65791952Y-79290861D01*
X65836500Y-79272409D01*
X65881048Y-79290861D01*
X65899500Y-79335409D01*
X65899500Y-79891762D01*
X65902353Y-79922197D01*
X65920655Y-79974500D01*
X65947207Y-80050382D01*
X66027850Y-80159650D01*
X66137118Y-80240293D01*
X66265301Y-80285146D01*
X66295734Y-80288000D01*
X66295740Y-80288000D01*
X67304260Y-80288000D01*
X67304266Y-80288000D01*
X67334699Y-80285146D01*
X67462882Y-80240293D01*
X67572150Y-80159650D01*
X67652793Y-80050382D01*
X67697646Y-79922199D01*
X67700500Y-79891766D01*
X67700500Y-79408408D01*
X67718952Y-79363861D01*
X67791952Y-79290861D01*
X67836500Y-79272409D01*
X67881048Y-79290861D01*
X67899500Y-79335409D01*
X67899500Y-79891762D01*
X67902353Y-79922197D01*
X67920655Y-79974500D01*
X67947207Y-80050382D01*
X68027850Y-80159650D01*
X68137118Y-80240293D01*
X68265301Y-80285146D01*
X68295734Y-80288000D01*
X68779090Y-80288000D01*
X68823638Y-80306452D01*
X69096638Y-80579452D01*
X69115090Y-80624000D01*
X69096638Y-80668548D01*
X69052090Y-80687000D01*
X68295734Y-80687000D01*
X68288526Y-80687675D01*
X68265302Y-80689853D01*
X68155471Y-80728285D01*
X68137118Y-80734707D01*
X68027850Y-80815350D01*
X67984629Y-80873911D01*
X67943331Y-80898796D01*
X67933941Y-80899500D01*
X67666059Y-80899500D01*
X67621511Y-80881048D01*
X67615373Y-80873916D01*
X67572150Y-80815350D01*
X67462882Y-80734707D01*
X67360583Y-80698911D01*
X67334697Y-80689853D01*
X67313875Y-80687901D01*
X67304266Y-80687000D01*
X66295734Y-80687000D01*
X66288526Y-80687675D01*
X66265302Y-80689853D01*
X66155471Y-80728285D01*
X66137118Y-80734707D01*
X66027850Y-80815350D01*
X65984629Y-80873911D01*
X65943331Y-80898796D01*
X65933941Y-80899500D01*
X65666059Y-80899500D01*
X65621511Y-80881048D01*
X65615373Y-80873916D01*
X65572150Y-80815350D01*
X65462882Y-80734707D01*
X65360583Y-80698911D01*
X65334697Y-80689853D01*
X65313875Y-80687901D01*
X65304266Y-80687000D01*
X64295734Y-80687000D01*
X64288526Y-80687675D01*
X64265302Y-80689853D01*
X64155471Y-80728285D01*
X64137118Y-80734707D01*
X64027850Y-80815350D01*
X63984629Y-80873911D01*
X63943331Y-80898796D01*
X63933941Y-80899500D01*
X63666059Y-80899500D01*
X63621511Y-80881048D01*
X63615373Y-80873916D01*
X63572150Y-80815350D01*
X63462882Y-80734707D01*
X63360583Y-80698911D01*
X63334697Y-80689853D01*
X63313875Y-80687901D01*
X63304266Y-80687000D01*
X62295734Y-80687000D01*
X62288526Y-80687675D01*
X62265302Y-80689853D01*
X62137118Y-80734707D01*
X62027850Y-80815350D01*
X61947207Y-80924618D01*
X61902353Y-81052802D01*
X61901531Y-81061572D01*
X61899629Y-81081864D01*
X61899500Y-81083237D01*
X61899500Y-81716762D01*
X61902353Y-81747197D01*
X61923063Y-81806384D01*
X61947207Y-81875382D01*
X62027850Y-81984650D01*
X62137118Y-82065293D01*
X62265301Y-82110146D01*
X62295734Y-82113000D01*
X62295740Y-82113000D01*
X63304260Y-82113000D01*
X63304266Y-82113000D01*
X63334699Y-82110146D01*
X63462882Y-82065293D01*
X63572150Y-81984650D01*
X63615370Y-81926088D01*
X63656669Y-81901204D01*
X63666059Y-81900500D01*
X63933941Y-81900500D01*
X63978489Y-81918952D01*
X63984626Y-81926083D01*
X64027850Y-81984650D01*
X64137118Y-82065293D01*
X64265301Y-82110146D01*
X64295734Y-82113000D01*
X64295740Y-82113000D01*
X65304260Y-82113000D01*
X65304266Y-82113000D01*
X65334699Y-82110146D01*
X65462882Y-82065293D01*
X65572150Y-81984650D01*
X65615370Y-81926088D01*
X65656669Y-81901204D01*
X65666059Y-81900500D01*
X65933941Y-81900500D01*
X65978489Y-81918952D01*
X65984626Y-81926083D01*
X66027850Y-81984650D01*
X66137118Y-82065293D01*
X66265301Y-82110146D01*
X66295734Y-82113000D01*
X66295740Y-82113000D01*
X67304260Y-82113000D01*
X67304266Y-82113000D01*
X67334699Y-82110146D01*
X67462882Y-82065293D01*
X67572150Y-81984650D01*
X67615370Y-81926088D01*
X67656669Y-81901204D01*
X67666059Y-81900500D01*
X67933941Y-81900500D01*
X67978489Y-81918952D01*
X67984626Y-81926083D01*
X68027850Y-81984650D01*
X68110708Y-82045802D01*
X68135593Y-82087101D01*
X68123987Y-82133902D01*
X68123279Y-82134842D01*
X68075464Y-82197158D01*
X68075463Y-82197160D01*
X68014956Y-82343233D01*
X68014956Y-82343236D01*
X67994318Y-82499999D01*
X67994318Y-82500000D01*
X68014956Y-82656763D01*
X68014956Y-82656766D01*
X68075463Y-82802839D01*
X68075464Y-82802841D01*
X68171714Y-82928278D01*
X68171721Y-82928285D01*
X68265798Y-83000472D01*
X68297159Y-83024536D01*
X68389274Y-83062691D01*
X68443235Y-83085043D01*
X68443238Y-83085044D01*
X68571984Y-83101993D01*
X68599999Y-83105682D01*
X68599999Y-83105681D01*
X68600000Y-83105682D01*
X68756762Y-83085044D01*
X68756764Y-83085043D01*
X68756766Y-83085043D01*
X68821365Y-83058284D01*
X68902841Y-83024536D01*
X69028282Y-82928282D01*
X69124536Y-82802841D01*
X69158284Y-82721365D01*
X69185043Y-82656766D01*
X69185043Y-82656764D01*
X69185044Y-82656762D01*
X69188295Y-82632064D01*
X69203143Y-82599031D01*
X69225377Y-82573373D01*
X69230103Y-82563024D01*
X69236975Y-82551442D01*
X69243796Y-82542331D01*
X69262312Y-82492685D01*
X69263154Y-82490650D01*
X69285165Y-82442457D01*
X69286443Y-82433564D01*
X69286784Y-82431195D01*
X69290114Y-82418143D01*
X69294091Y-82407483D01*
X69296112Y-82379221D01*
X69297870Y-82354648D01*
X69298111Y-82352409D01*
X69298530Y-82349500D01*
X69300500Y-82335799D01*
X69300500Y-82318998D01*
X69300579Y-82316770D01*
X69304359Y-82263927D01*
X69301940Y-82252806D01*
X69300500Y-82239415D01*
X69300500Y-82166813D01*
X69318952Y-82122265D01*
X69342690Y-82107349D01*
X69462882Y-82065293D01*
X69572150Y-81984650D01*
X69652793Y-81875382D01*
X69697646Y-81747199D01*
X69700500Y-81716766D01*
X69700500Y-81335409D01*
X69718952Y-81290862D01*
X69763500Y-81272410D01*
X69808048Y-81290862D01*
X70828254Y-82311068D01*
X70836701Y-82321550D01*
X70842857Y-82331128D01*
X70882880Y-82365808D01*
X70884520Y-82367335D01*
X70896404Y-82379218D01*
X70896407Y-82379221D01*
X70906793Y-82386995D01*
X70909863Y-82389294D01*
X70911605Y-82390698D01*
X70951627Y-82425377D01*
X70951628Y-82425377D01*
X70951629Y-82425378D01*
X70961976Y-82430104D01*
X70973557Y-82436975D01*
X70982669Y-82443796D01*
X71032291Y-82462303D01*
X71034363Y-82463162D01*
X71082543Y-82485165D01*
X71093804Y-82486784D01*
X71106854Y-82490114D01*
X71108227Y-82490626D01*
X71117517Y-82494091D01*
X71170346Y-82497869D01*
X71172550Y-82498105D01*
X71189201Y-82500500D01*
X71206002Y-82500500D01*
X71208229Y-82500579D01*
X71256492Y-82504031D01*
X71261072Y-82504359D01*
X71261072Y-82504358D01*
X71261073Y-82504359D01*
X71272192Y-82501940D01*
X71285585Y-82500500D01*
X77539415Y-82500500D01*
X77552807Y-82501940D01*
X77563927Y-82504359D01*
X77616770Y-82500579D01*
X77618998Y-82500500D01*
X77635794Y-82500500D01*
X77635799Y-82500500D01*
X77652418Y-82498109D01*
X77654648Y-82497870D01*
X77684930Y-82495703D01*
X77707483Y-82494091D01*
X77718143Y-82490114D01*
X77731195Y-82486784D01*
X77733564Y-82486443D01*
X77742457Y-82485165D01*
X77790650Y-82463154D01*
X77792685Y-82462312D01*
X77842331Y-82443796D01*
X77851442Y-82436974D01*
X77863028Y-82430101D01*
X77873373Y-82425377D01*
X77913404Y-82390688D01*
X77915136Y-82389294D01*
X77928593Y-82379221D01*
X77940496Y-82367316D01*
X77942093Y-82365829D01*
X77982143Y-82331128D01*
X77988297Y-82321552D01*
X77996741Y-82311071D01*
X79388861Y-80918952D01*
X79433410Y-80900500D01*
X80144745Y-80900500D01*
X80144748Y-80900500D01*
X80203231Y-80888867D01*
X80269552Y-80844552D01*
X80313867Y-80778231D01*
X80325500Y-80719748D01*
X80325500Y-79680252D01*
X80313867Y-79621769D01*
X80269552Y-79555448D01*
X80203231Y-79511133D01*
X80144748Y-79499500D01*
X78655252Y-79499500D01*
X78642845Y-79501967D01*
X78623813Y-79505753D01*
X78576521Y-79496345D01*
X78549734Y-79456252D01*
X78559142Y-79408960D01*
X78566977Y-79399415D01*
X78647441Y-79318952D01*
X78691988Y-79300500D01*
X80144745Y-79300500D01*
X80144748Y-79300500D01*
X80203231Y-79288867D01*
X80269552Y-79244552D01*
X80313867Y-79178231D01*
X80325500Y-79119748D01*
X80325500Y-79004932D01*
X83106500Y-79004932D01*
X83109387Y-79035731D01*
X83154789Y-79165480D01*
X83236417Y-79276082D01*
X83347019Y-79357710D01*
X83476768Y-79403112D01*
X83507567Y-79405999D01*
X83507574Y-79406000D01*
X83709499Y-79406000D01*
X83709500Y-79405999D01*
X83709500Y-78878000D01*
X83106501Y-78878000D01*
X83106500Y-78878001D01*
X83106500Y-79004932D01*
X80325500Y-79004932D01*
X80325500Y-78408410D01*
X80343952Y-78363862D01*
X80538862Y-78168952D01*
X80583410Y-78150500D01*
X83165805Y-78150500D01*
X83210353Y-78168952D01*
X83228805Y-78213500D01*
X83216495Y-78250911D01*
X83154789Y-78334519D01*
X83109387Y-78464268D01*
X83106500Y-78495067D01*
X83106500Y-78621999D01*
X83106501Y-78622000D01*
X84568499Y-78622000D01*
X84568500Y-78621999D01*
X84568500Y-78495074D01*
X84568499Y-78495067D01*
X84565612Y-78464268D01*
X84520210Y-78334519D01*
X84458505Y-78250911D01*
X84446899Y-78204110D01*
X84471784Y-78162810D01*
X84509195Y-78150500D01*
X85043592Y-78150500D01*
X85088140Y-78168952D01*
X85106592Y-78213500D01*
X85105934Y-78222578D01*
X85099500Y-78266740D01*
X85099500Y-78266742D01*
X85099500Y-78616220D01*
X85081048Y-78660768D01*
X84674667Y-79067149D01*
X84630119Y-79085601D01*
X84585571Y-79067149D01*
X84567119Y-79022601D01*
X84567394Y-79016718D01*
X84568499Y-79004927D01*
X84568500Y-79004926D01*
X84568500Y-78878001D01*
X84568499Y-78878000D01*
X83965500Y-78878000D01*
X83965500Y-79405999D01*
X83965501Y-79406000D01*
X84167426Y-79406000D01*
X84167427Y-79405999D01*
X84179218Y-79404894D01*
X84225294Y-79419106D01*
X84247826Y-79461736D01*
X84233614Y-79507812D01*
X84229649Y-79512167D01*
X83960768Y-79781048D01*
X83916220Y-79799500D01*
X83530977Y-79799500D01*
X83530976Y-79799501D01*
X83437200Y-79814352D01*
X83437195Y-79814354D01*
X83324157Y-79871950D01*
X83234450Y-79961657D01*
X83176852Y-80074698D01*
X83162000Y-80168476D01*
X83162000Y-80631522D01*
X83162001Y-80631523D01*
X83176852Y-80725299D01*
X83176854Y-80725304D01*
X83234450Y-80838342D01*
X83324158Y-80928050D01*
X83428078Y-80981000D01*
X83437198Y-80985647D01*
X83524616Y-80999491D01*
X83530968Y-81000498D01*
X83530975Y-81000499D01*
X83530981Y-81000500D01*
X84144018Y-81000499D01*
X84144022Y-81000499D01*
X84144022Y-81000498D01*
X84190911Y-80993072D01*
X84237799Y-80985647D01*
X84237799Y-80985646D01*
X84237804Y-80985646D01*
X84350842Y-80928050D01*
X84440550Y-80838342D01*
X84498146Y-80725304D01*
X84498146Y-80725302D01*
X84498147Y-80725301D01*
X84512999Y-80631523D01*
X84513000Y-80631519D01*
X84513000Y-80531958D01*
X85044000Y-80531958D01*
X85059057Y-80627022D01*
X85117445Y-80741616D01*
X85208383Y-80832554D01*
X85322977Y-80890942D01*
X85418041Y-80906000D01*
X85834499Y-80906000D01*
X85834500Y-80905999D01*
X85834500Y-80478001D01*
X85834499Y-80478000D01*
X85044001Y-80478000D01*
X85044000Y-80478001D01*
X85044000Y-80531958D01*
X84513000Y-80531958D01*
X84512999Y-80246276D01*
X84523055Y-80221999D01*
X85044000Y-80221999D01*
X85044001Y-80222000D01*
X85834499Y-80222000D01*
X85834500Y-80221998D01*
X85834500Y-79794001D01*
X85834499Y-79794000D01*
X85418041Y-79794000D01*
X85322977Y-79809057D01*
X85208383Y-79867445D01*
X85117445Y-79958383D01*
X85059057Y-80072977D01*
X85044000Y-80168041D01*
X85044000Y-80221999D01*
X84523055Y-80221999D01*
X84531450Y-80201730D01*
X85565256Y-79167924D01*
X85609803Y-79149473D01*
X85654349Y-79167924D01*
X86137819Y-79651393D01*
X86172878Y-79686452D01*
X86191330Y-79731000D01*
X86172878Y-79775548D01*
X86128330Y-79794000D01*
X86090500Y-79794000D01*
X86090500Y-80905999D01*
X86090501Y-80906000D01*
X86386500Y-80906000D01*
X86431048Y-80924452D01*
X86449500Y-80969000D01*
X86449500Y-80981000D01*
X86449420Y-80983229D01*
X86448185Y-81000500D01*
X86445640Y-81036071D01*
X86448060Y-81047191D01*
X86449500Y-81060584D01*
X86449500Y-83833012D01*
X86431048Y-83877560D01*
X86421950Y-83886657D01*
X86364352Y-83999698D01*
X86349500Y-84093475D01*
X86349500Y-84706522D01*
X86349501Y-84706523D01*
X86364352Y-84800299D01*
X86364354Y-84800304D01*
X86421950Y-84913342D01*
X86511658Y-85003050D01*
X86566607Y-85031048D01*
X86624698Y-85060647D01*
X86696583Y-85072031D01*
X86718481Y-85075500D01*
X87181518Y-85075499D01*
X87181522Y-85075499D01*
X87181522Y-85075498D01*
X87228410Y-85068072D01*
X87275299Y-85060647D01*
X87275299Y-85060646D01*
X87275304Y-85060646D01*
X87388342Y-85003050D01*
X87478050Y-84913342D01*
X87535646Y-84800304D01*
X87535646Y-84800302D01*
X87535647Y-84800301D01*
X87549173Y-84714896D01*
X87550500Y-84706519D01*
X87550499Y-84093482D01*
X87550499Y-84093481D01*
X87550499Y-84093477D01*
X87550498Y-84093476D01*
X87535647Y-83999700D01*
X87535646Y-83999698D01*
X87535646Y-83999696D01*
X87478050Y-83886658D01*
X87478048Y-83886656D01*
X87478047Y-83886654D01*
X87468951Y-83877557D01*
X87450500Y-83833011D01*
X87450500Y-81237135D01*
X87465886Y-81195881D01*
X87490835Y-81167086D01*
X87492322Y-81165489D01*
X87504220Y-81153593D01*
X87514307Y-81140116D01*
X87515674Y-81138420D01*
X87550377Y-81098373D01*
X87555101Y-81088026D01*
X87561975Y-81076442D01*
X87562229Y-81076103D01*
X87568796Y-81067331D01*
X87587312Y-81017685D01*
X87588154Y-81015650D01*
X87610165Y-80967457D01*
X87611784Y-80956193D01*
X87615113Y-80943145D01*
X87619091Y-80932483D01*
X87621969Y-80892235D01*
X87622869Y-80879655D01*
X87623110Y-80877416D01*
X87625499Y-80860805D01*
X87625500Y-80860799D01*
X87625500Y-80843988D01*
X87625579Y-80841762D01*
X87629358Y-80788927D01*
X87626940Y-80777810D01*
X87625500Y-80764419D01*
X87625500Y-79991345D01*
X87626940Y-79977952D01*
X87629359Y-79966834D01*
X87629359Y-79966829D01*
X87629681Y-79962339D01*
X87631284Y-79962453D01*
X87644675Y-79922237D01*
X87687796Y-79900660D01*
X87692282Y-79900500D01*
X88783254Y-79900500D01*
X88783260Y-79900500D01*
X88851393Y-79890573D01*
X88956483Y-79839198D01*
X89039198Y-79756483D01*
X89090573Y-79651393D01*
X89100500Y-79583260D01*
X89100500Y-79216740D01*
X89090573Y-79148607D01*
X89090571Y-79148603D01*
X89056271Y-79078441D01*
X89039198Y-79043517D01*
X88956483Y-78960802D01*
X88944650Y-78955017D01*
X88851395Y-78909427D01*
X88827254Y-78905910D01*
X88783260Y-78899500D01*
X88783256Y-78899500D01*
X88716308Y-78899500D01*
X88671760Y-78881048D01*
X88663308Y-78870559D01*
X88662877Y-78869888D01*
X88628206Y-78829876D01*
X88626794Y-78828124D01*
X88619972Y-78819011D01*
X88616721Y-78814668D01*
X88613110Y-78811057D01*
X88604835Y-78802781D01*
X88603309Y-78801143D01*
X88568628Y-78761118D01*
X88559050Y-78754962D01*
X88548568Y-78746515D01*
X88324052Y-78521999D01*
X97469000Y-78521999D01*
X97469001Y-78522000D01*
X98071999Y-78522000D01*
X98072000Y-78521999D01*
X98072000Y-78521998D01*
X98328000Y-78521998D01*
X98328001Y-78522000D01*
X98930999Y-78522000D01*
X98931000Y-78521999D01*
X98931000Y-78395074D01*
X98930999Y-78395067D01*
X98928112Y-78364268D01*
X98882710Y-78234519D01*
X98801082Y-78123917D01*
X98690480Y-78042289D01*
X98560731Y-77996887D01*
X98529932Y-77994000D01*
X98328001Y-77994000D01*
X98328000Y-77994001D01*
X98328000Y-78521998D01*
X98072000Y-78521998D01*
X98072000Y-77994001D01*
X98071999Y-77994000D01*
X97870067Y-77994000D01*
X97839268Y-77996887D01*
X97709519Y-78042289D01*
X97598917Y-78123917D01*
X97517289Y-78234519D01*
X97471887Y-78364268D01*
X97469000Y-78395067D01*
X97469000Y-78521999D01*
X88324052Y-78521999D01*
X88174052Y-78371999D01*
X94881500Y-78371999D01*
X94881501Y-78372000D01*
X95671999Y-78372000D01*
X95672000Y-78371999D01*
X95928000Y-78371999D01*
X95928001Y-78372000D01*
X96718499Y-78372000D01*
X96718500Y-78371999D01*
X96718500Y-78318041D01*
X96703442Y-78222977D01*
X96645054Y-78108383D01*
X96554116Y-78017445D01*
X96439522Y-77959057D01*
X96344459Y-77944000D01*
X95928001Y-77944000D01*
X95928000Y-77944001D01*
X95928000Y-78371999D01*
X95672000Y-78371999D01*
X95672000Y-77944001D01*
X95671999Y-77944000D01*
X95255541Y-77944000D01*
X95160477Y-77959057D01*
X95045883Y-78017445D01*
X94954945Y-78108383D01*
X94896557Y-78222977D01*
X94881500Y-78318041D01*
X94881500Y-78371999D01*
X88174052Y-78371999D01*
X87140983Y-77338930D01*
X87132533Y-77328444D01*
X87126382Y-77318872D01*
X87086356Y-77284190D01*
X87084717Y-77282663D01*
X87072830Y-77270777D01*
X87066227Y-77265835D01*
X87059372Y-77260703D01*
X87057630Y-77259299D01*
X87055752Y-77257672D01*
X87031868Y-77236976D01*
X87017615Y-77224625D01*
X87017613Y-77224624D01*
X87017612Y-77224623D01*
X87007258Y-77219894D01*
X86995683Y-77213025D01*
X86986574Y-77206206D01*
X86986572Y-77206205D01*
X86986570Y-77206204D01*
X86942729Y-77189852D01*
X86936946Y-77187695D01*
X86934868Y-77186834D01*
X86886695Y-77164834D01*
X86875423Y-77163213D01*
X86862382Y-77159884D01*
X86851725Y-77155910D01*
X86851724Y-77155909D01*
X86851722Y-77155909D01*
X86851720Y-77155908D01*
X86851717Y-77155908D01*
X86798904Y-77152130D01*
X86796671Y-77151890D01*
X86780041Y-77149500D01*
X86780038Y-77149500D01*
X86763237Y-77149500D01*
X86761009Y-77149420D01*
X86738290Y-77147795D01*
X86708166Y-77145640D01*
X86697046Y-77148060D01*
X86683654Y-77149500D01*
X80410585Y-77149500D01*
X80397193Y-77148060D01*
X80386070Y-77145640D01*
X80353472Y-77147972D01*
X80333229Y-77149420D01*
X80331002Y-77149500D01*
X80314201Y-77149500D01*
X80310907Y-77149973D01*
X80297566Y-77151890D01*
X80295333Y-77152130D01*
X80242521Y-77155908D01*
X80242510Y-77155910D01*
X80231849Y-77159886D01*
X80218810Y-77163214D01*
X80207540Y-77164835D01*
X80207539Y-77164835D01*
X80159373Y-77186832D01*
X80157296Y-77187692D01*
X80107669Y-77206203D01*
X80107667Y-77206204D01*
X80098549Y-77213029D01*
X80086978Y-77219894D01*
X80076629Y-77224621D01*
X80036601Y-77259303D01*
X80034853Y-77260712D01*
X80021407Y-77270778D01*
X80021400Y-77270784D01*
X80009532Y-77282652D01*
X80007888Y-77284183D01*
X79967861Y-77318867D01*
X79967852Y-77318877D01*
X79961700Y-77328449D01*
X79953253Y-77338931D01*
X79411138Y-77881048D01*
X79366590Y-77899500D01*
X78655252Y-77899500D01*
X78611389Y-77908224D01*
X78596768Y-77911133D01*
X78530449Y-77955447D01*
X78530447Y-77955449D01*
X78486133Y-78021768D01*
X78486132Y-78021769D01*
X78486133Y-78021769D01*
X78474500Y-78080252D01*
X78474500Y-78080255D01*
X78474500Y-78333011D01*
X78456048Y-78377559D01*
X77800584Y-79033022D01*
X77756036Y-79051474D01*
X77711488Y-79033022D01*
X77693036Y-78988474D01*
X77694247Y-78976183D01*
X77694469Y-78975070D01*
X77700500Y-78944748D01*
X77700500Y-77455252D01*
X77688867Y-77396769D01*
X77644552Y-77330448D01*
X77578231Y-77286133D01*
X77578230Y-77286132D01*
X77578229Y-77286132D01*
X77551209Y-77280757D01*
X77511117Y-77253968D01*
X77500500Y-77218968D01*
X77500500Y-76935584D01*
X77501940Y-76922191D01*
X77504359Y-76911071D01*
X77502433Y-76884143D01*
X77500579Y-76858229D01*
X77500500Y-76856000D01*
X77500500Y-76839205D01*
X77500498Y-76839189D01*
X77498107Y-76822563D01*
X77497869Y-76820346D01*
X77494091Y-76767517D01*
X77490114Y-76756854D01*
X77486784Y-76743804D01*
X77485165Y-76732544D01*
X77485165Y-76732543D01*
X77463162Y-76684363D01*
X77462301Y-76682285D01*
X77443796Y-76632669D01*
X77436975Y-76623557D01*
X77430104Y-76611976D01*
X77425378Y-76601629D01*
X77425377Y-76601628D01*
X77425377Y-76601627D01*
X77390699Y-76561607D01*
X77389294Y-76559863D01*
X77386995Y-76556793D01*
X77379221Y-76546407D01*
X77376766Y-76543952D01*
X77367335Y-76534520D01*
X77365809Y-76532882D01*
X77331128Y-76492857D01*
X77321550Y-76486701D01*
X77311068Y-76478254D01*
X76455076Y-75622262D01*
X76436624Y-75577714D01*
X76455076Y-75533166D01*
X76499624Y-75514714D01*
X102030706Y-75514714D01*
X102075254Y-75533166D01*
X102093706Y-75577714D01*
X102075254Y-75622262D01*
X102071958Y-75625330D01*
X102061600Y-75634304D01*
X102059853Y-75635712D01*
X102046407Y-75645778D01*
X102046400Y-75645784D01*
X102034532Y-75657652D01*
X102032888Y-75659183D01*
X101992861Y-75693867D01*
X101992852Y-75693877D01*
X101986700Y-75703449D01*
X101978253Y-75713931D01*
X101788931Y-75903253D01*
X101778449Y-75911700D01*
X101768877Y-75917852D01*
X101768867Y-75917861D01*
X101734183Y-75957888D01*
X101732652Y-75959532D01*
X101720784Y-75971400D01*
X101720778Y-75971407D01*
X101710712Y-75984853D01*
X101709303Y-75986601D01*
X101674621Y-76026629D01*
X101669894Y-76036978D01*
X101663029Y-76048549D01*
X101656204Y-76057667D01*
X101656203Y-76057669D01*
X101637692Y-76107296D01*
X101636832Y-76109373D01*
X101614835Y-76157539D01*
X101614835Y-76157540D01*
X101613214Y-76168810D01*
X101609886Y-76181849D01*
X101605910Y-76192510D01*
X101605908Y-76192521D01*
X101602130Y-76245333D01*
X101601890Y-76247566D01*
X101599500Y-76264203D01*
X101599500Y-76281000D01*
X101599420Y-76283229D01*
X101598436Y-76296992D01*
X101595640Y-76336071D01*
X101598060Y-76347191D01*
X101599500Y-76360584D01*
X101599500Y-80064415D01*
X101598060Y-80077806D01*
X101595641Y-80088927D01*
X101595640Y-80088927D01*
X101597363Y-80112999D01*
X101599420Y-80141770D01*
X101599500Y-80143998D01*
X101599500Y-80160801D01*
X101601890Y-80177432D01*
X101602130Y-80179665D01*
X101605908Y-80232478D01*
X101605910Y-80232486D01*
X101609884Y-80243143D01*
X101613213Y-80256184D01*
X101614834Y-80267456D01*
X101636834Y-80315629D01*
X101637695Y-80317707D01*
X101656205Y-80367333D01*
X101656206Y-80367335D01*
X101663025Y-80376444D01*
X101669894Y-80388019D01*
X101674623Y-80398373D01*
X101674625Y-80398375D01*
X101674625Y-80398376D01*
X101709299Y-80438391D01*
X101710703Y-80440133D01*
X101715835Y-80446988D01*
X101720777Y-80453591D01*
X101732663Y-80465478D01*
X101734190Y-80467117D01*
X101768872Y-80507143D01*
X101778444Y-80513294D01*
X101788930Y-80521744D01*
X101859138Y-80591952D01*
X101877590Y-80636500D01*
X101859138Y-80681048D01*
X101814590Y-80699500D01*
X99977849Y-80699500D01*
X99933301Y-80681048D01*
X99914849Y-80636500D01*
X99923289Y-80605001D01*
X99924531Y-80602847D01*
X99924536Y-80602841D01*
X99960110Y-80516957D01*
X99985043Y-80456766D01*
X99985043Y-80456764D01*
X99985044Y-80456762D01*
X100005682Y-80300000D01*
X99985044Y-80143238D01*
X99985043Y-80143235D01*
X99985043Y-80143233D01*
X99935008Y-80022440D01*
X99924536Y-79997159D01*
X99894782Y-79958383D01*
X99828285Y-79871721D01*
X99828278Y-79871714D01*
X99702841Y-79775464D01*
X99702839Y-79775463D01*
X99556764Y-79714956D01*
X99400000Y-79694318D01*
X99243236Y-79714956D01*
X99243233Y-79714956D01*
X99097160Y-79775463D01*
X99097158Y-79775464D01*
X98971721Y-79871714D01*
X98971714Y-79871721D01*
X98934220Y-79920585D01*
X98892462Y-79944694D01*
X98845887Y-79932214D01*
X98828108Y-79910838D01*
X98803050Y-79861658D01*
X98713342Y-79771950D01*
X98712761Y-79771654D01*
X98600301Y-79714352D01*
X98506524Y-79699500D01*
X97893477Y-79699500D01*
X97893476Y-79699501D01*
X97799700Y-79714352D01*
X97799695Y-79714354D01*
X97686657Y-79771950D01*
X97596950Y-79861657D01*
X97575955Y-79902863D01*
X97539290Y-79934178D01*
X97491220Y-79930394D01*
X97459905Y-79893729D01*
X97456983Y-79878759D01*
X97456591Y-79873278D01*
X97452614Y-79862615D01*
X97449284Y-79849565D01*
X97448410Y-79843487D01*
X97447665Y-79838304D01*
X97436727Y-79814354D01*
X97425662Y-79790124D01*
X97424801Y-79788046D01*
X97406296Y-79738430D01*
X97399475Y-79729318D01*
X97392604Y-79717737D01*
X97387878Y-79707390D01*
X97387877Y-79707389D01*
X97387877Y-79707388D01*
X97353199Y-79667368D01*
X97351794Y-79665624D01*
X97344031Y-79655254D01*
X97341721Y-79652168D01*
X97338366Y-79648813D01*
X97329835Y-79640281D01*
X97328309Y-79638643D01*
X97293628Y-79598618D01*
X97284050Y-79592462D01*
X97273568Y-79584015D01*
X96778483Y-79088930D01*
X96770033Y-79078444D01*
X96763882Y-79068872D01*
X96723856Y-79034190D01*
X96722217Y-79032663D01*
X96710330Y-79020777D01*
X96697004Y-79010802D01*
X96696872Y-79010703D01*
X96695130Y-79009299D01*
X96690090Y-79004932D01*
X96655628Y-78975070D01*
X96634045Y-78931952D01*
X96641772Y-78904932D01*
X97469000Y-78904932D01*
X97471887Y-78935731D01*
X97517289Y-79065480D01*
X97598917Y-79176082D01*
X97709519Y-79257710D01*
X97839268Y-79303112D01*
X97870067Y-79305999D01*
X97870074Y-79306000D01*
X98071999Y-79306000D01*
X98072000Y-79305999D01*
X98072000Y-79305998D01*
X98328000Y-79305998D01*
X98328001Y-79306000D01*
X98529926Y-79306000D01*
X98529932Y-79305999D01*
X98560731Y-79303112D01*
X98690480Y-79257710D01*
X98801082Y-79176082D01*
X98882710Y-79065480D01*
X98928112Y-78935731D01*
X98930999Y-78904932D01*
X98931000Y-78904926D01*
X98931000Y-78778001D01*
X98930999Y-78778000D01*
X98328001Y-78778000D01*
X98328000Y-78778001D01*
X98328000Y-79305998D01*
X98072000Y-79305998D01*
X98072000Y-78778000D01*
X97469001Y-78778000D01*
X97469000Y-78778001D01*
X97469000Y-78904932D01*
X96641772Y-78904932D01*
X96644125Y-78896706D01*
X96642804Y-78896033D01*
X96703442Y-78777022D01*
X96718500Y-78681958D01*
X96718500Y-78628001D01*
X96718499Y-78628000D01*
X94881501Y-78628000D01*
X94881500Y-78628001D01*
X94881500Y-78681958D01*
X94896557Y-78777022D01*
X94912289Y-78807898D01*
X94916073Y-78855968D01*
X94884758Y-78892633D01*
X94856156Y-78899500D01*
X93635585Y-78899500D01*
X93622193Y-78898060D01*
X93611070Y-78895640D01*
X93578472Y-78897972D01*
X93558229Y-78899420D01*
X93556002Y-78899500D01*
X93539201Y-78899500D01*
X93535907Y-78899973D01*
X93522566Y-78901890D01*
X93520333Y-78902130D01*
X93467521Y-78905908D01*
X93467510Y-78905910D01*
X93456849Y-78909886D01*
X93443810Y-78913214D01*
X93432540Y-78914835D01*
X93432539Y-78914835D01*
X93384373Y-78936832D01*
X93382297Y-78937692D01*
X93361294Y-78945527D01*
X93339275Y-78949500D01*
X92979240Y-78949500D01*
X92945173Y-78954463D01*
X92911104Y-78959427D01*
X92806018Y-79010801D01*
X92723301Y-79093518D01*
X92671927Y-79198604D01*
X92669284Y-79216746D01*
X92662000Y-79266740D01*
X92662000Y-79633260D01*
X92666846Y-79666518D01*
X92671927Y-79701395D01*
X92717199Y-79794000D01*
X92723302Y-79806483D01*
X92806017Y-79889198D01*
X92854462Y-79912881D01*
X92911104Y-79940572D01*
X92911105Y-79940572D01*
X92911107Y-79940573D01*
X92979240Y-79950500D01*
X93464415Y-79950500D01*
X93477807Y-79951940D01*
X93488927Y-79954359D01*
X93541770Y-79950579D01*
X93543998Y-79950500D01*
X93800505Y-79950500D01*
X93845053Y-79968952D01*
X93863505Y-80013500D01*
X93858709Y-80037609D01*
X93814956Y-80143234D01*
X93814956Y-80143236D01*
X93794318Y-80299999D01*
X93794318Y-80300000D01*
X93814956Y-80456763D01*
X93814956Y-80456766D01*
X93875463Y-80602839D01*
X93875464Y-80602841D01*
X93971714Y-80728278D01*
X93971721Y-80728285D01*
X94023070Y-80767686D01*
X94097159Y-80824536D01*
X94184720Y-80860805D01*
X94243235Y-80885043D01*
X94243238Y-80885044D01*
X94400000Y-80905682D01*
X94556762Y-80885044D01*
X94556764Y-80885043D01*
X94556765Y-80885043D01*
X94667816Y-80839044D01*
X94716034Y-80839043D01*
X94750129Y-80873139D01*
X94751173Y-80910273D01*
X94753231Y-80910663D01*
X94752352Y-80915304D01*
X94752341Y-80915613D01*
X94749591Y-80931799D01*
X94749500Y-80932092D01*
X94749500Y-80991573D01*
X94747276Y-81051010D01*
X94747276Y-81051013D01*
X94747353Y-81051298D01*
X94749500Y-81067603D01*
X94749500Y-83783011D01*
X94731048Y-83827558D01*
X94671951Y-83886655D01*
X94614352Y-83999698D01*
X94599500Y-84093475D01*
X94599500Y-84706522D01*
X94599501Y-84706523D01*
X94614352Y-84800299D01*
X94614354Y-84800304D01*
X94671950Y-84913342D01*
X94761658Y-85003050D01*
X94816607Y-85031048D01*
X94874698Y-85060647D01*
X94946583Y-85072031D01*
X94968481Y-85075500D01*
X95431518Y-85075499D01*
X95431522Y-85075499D01*
X95431522Y-85075498D01*
X95467828Y-85069748D01*
X98009500Y-85069748D01*
X98021133Y-85128231D01*
X98065448Y-85194552D01*
X98131769Y-85238867D01*
X98190252Y-85250500D01*
X99376591Y-85250500D01*
X99421139Y-85268952D01*
X100013253Y-85861066D01*
X100021704Y-85871554D01*
X100027855Y-85881126D01*
X100027856Y-85881127D01*
X100027857Y-85881128D01*
X100067890Y-85915816D01*
X100069528Y-85917342D01*
X100081408Y-85929221D01*
X100094847Y-85939281D01*
X100096591Y-85940686D01*
X100136627Y-85975377D01*
X100136628Y-85975377D01*
X100136629Y-85975378D01*
X100146976Y-85980104D01*
X100158557Y-85986975D01*
X100167669Y-85993796D01*
X100217291Y-86012303D01*
X100219363Y-86013162D01*
X100267543Y-86035165D01*
X100278804Y-86036784D01*
X100291855Y-86040114D01*
X100302517Y-86044091D01*
X100355346Y-86047869D01*
X100357550Y-86048105D01*
X100374201Y-86050500D01*
X100391002Y-86050500D01*
X100393229Y-86050579D01*
X100441492Y-86054031D01*
X100446072Y-86054359D01*
X100446072Y-86054358D01*
X100446073Y-86054359D01*
X100457192Y-86051940D01*
X100470585Y-86050500D01*
X100916590Y-86050500D01*
X100961138Y-86068952D01*
X103031048Y-88138861D01*
X103049500Y-88183409D01*
X103049500Y-89679262D01*
X103052353Y-89709697D01*
X103073063Y-89768884D01*
X103097207Y-89837882D01*
X103177850Y-89947150D01*
X103287118Y-90027793D01*
X103415301Y-90072646D01*
X103445734Y-90075500D01*
X103445740Y-90075500D01*
X105129260Y-90075500D01*
X105129266Y-90075500D01*
X105159699Y-90072646D01*
X105287882Y-90027793D01*
X105397150Y-89947150D01*
X105477793Y-89837882D01*
X105522646Y-89709699D01*
X105525500Y-89679266D01*
X105525500Y-89673389D01*
X109219001Y-89673389D01*
X109225479Y-89733659D01*
X109225480Y-89733663D01*
X109276327Y-89869990D01*
X109276330Y-89869997D01*
X109363521Y-89986471D01*
X109363528Y-89986478D01*
X109480002Y-90073669D01*
X109480009Y-90073672D01*
X109616335Y-90124519D01*
X109616339Y-90124520D01*
X109676609Y-90130999D01*
X110384500Y-90130999D01*
X110384500Y-90130998D01*
X110640500Y-90130998D01*
X110640501Y-90130999D01*
X111348390Y-90130999D01*
X111408659Y-90124520D01*
X111408663Y-90124519D01*
X111544990Y-90073672D01*
X111544997Y-90073669D01*
X111661471Y-89986478D01*
X111661478Y-89986471D01*
X111748669Y-89869997D01*
X111748672Y-89869990D01*
X111799519Y-89733664D01*
X111799520Y-89733660D01*
X111806000Y-89673390D01*
X111806000Y-88728001D01*
X111805999Y-88728000D01*
X110640501Y-88728000D01*
X110640500Y-88728001D01*
X110640500Y-90130998D01*
X110384500Y-90130998D01*
X110384500Y-88728001D01*
X110384499Y-88728000D01*
X109219002Y-88728000D01*
X109219001Y-88728001D01*
X109219001Y-89673389D01*
X105525500Y-89673389D01*
X105525500Y-89163500D01*
X105543952Y-89118952D01*
X105588500Y-89100500D01*
X105844449Y-89100500D01*
X105882801Y-89113519D01*
X105889882Y-89118952D01*
X105897159Y-89124536D01*
X105989274Y-89162691D01*
X106043235Y-89185043D01*
X106043238Y-89185044D01*
X106200000Y-89205682D01*
X106356762Y-89185044D01*
X106356764Y-89185043D01*
X106356766Y-89185043D01*
X106421365Y-89158284D01*
X106502841Y-89124536D01*
X106628282Y-89028282D01*
X106724536Y-88902841D01*
X106758284Y-88821365D01*
X106785043Y-88756766D01*
X106785043Y-88756764D01*
X106785044Y-88756762D01*
X106805682Y-88600000D01*
X106788830Y-88471999D01*
X109219000Y-88471999D01*
X109219001Y-88472000D01*
X110384499Y-88472000D01*
X110384500Y-88471999D01*
X110384500Y-87069001D01*
X110384499Y-87069000D01*
X110640500Y-87069000D01*
X110640500Y-88471999D01*
X110640501Y-88472000D01*
X111805998Y-88472000D01*
X111805999Y-88471998D01*
X111805999Y-87526610D01*
X111799520Y-87466340D01*
X111799519Y-87466336D01*
X111748672Y-87330009D01*
X111748669Y-87330002D01*
X111661478Y-87213528D01*
X111661471Y-87213521D01*
X111544997Y-87126330D01*
X111544990Y-87126327D01*
X111408664Y-87075480D01*
X111408660Y-87075479D01*
X111348390Y-87069000D01*
X110640500Y-87069000D01*
X110384499Y-87069000D01*
X109676610Y-87069000D01*
X109616340Y-87075479D01*
X109616336Y-87075480D01*
X109480009Y-87126327D01*
X109480002Y-87126330D01*
X109363528Y-87213521D01*
X109363521Y-87213528D01*
X109276330Y-87330002D01*
X109276327Y-87330009D01*
X109225480Y-87466335D01*
X109225479Y-87466339D01*
X109219000Y-87526609D01*
X109219000Y-88471999D01*
X106788830Y-88471999D01*
X106785044Y-88443238D01*
X106785043Y-88443235D01*
X106785043Y-88443233D01*
X106724536Y-88297160D01*
X106724535Y-88297158D01*
X106628285Y-88171721D01*
X106628278Y-88171714D01*
X106502841Y-88075464D01*
X106502839Y-88075463D01*
X106356764Y-88014956D01*
X106200000Y-87994318D01*
X106043236Y-88014956D01*
X106043233Y-88014956D01*
X105897160Y-88075463D01*
X105897158Y-88075464D01*
X105882801Y-88086481D01*
X105844449Y-88099500D01*
X105588500Y-88099500D01*
X105543952Y-88081048D01*
X105525500Y-88036500D01*
X105525500Y-87520740D01*
X105525500Y-87520734D01*
X105522646Y-87490301D01*
X105477793Y-87362118D01*
X105397150Y-87252850D01*
X105287882Y-87172207D01*
X105218884Y-87148063D01*
X105159697Y-87127353D01*
X105138875Y-87125401D01*
X105129266Y-87124500D01*
X103458410Y-87124500D01*
X103413862Y-87106048D01*
X101660867Y-85353053D01*
X101642415Y-85308505D01*
X101660867Y-85263957D01*
X101699238Y-85245808D01*
X101805934Y-85235300D01*
X101940264Y-85194552D01*
X102003952Y-85175233D01*
X102003954Y-85175232D01*
X102091886Y-85128231D01*
X102186450Y-85077685D01*
X102346410Y-84946410D01*
X102477685Y-84786450D01*
X102575232Y-84603954D01*
X102576054Y-84601246D01*
X102613439Y-84478000D01*
X102635300Y-84405934D01*
X102642976Y-84328000D01*
X103041122Y-84328000D01*
X103048172Y-84404091D01*
X103048172Y-84404093D01*
X103104268Y-84601246D01*
X103195629Y-84784723D01*
X103195634Y-84784731D01*
X103319151Y-84948294D01*
X103319158Y-84948301D01*
X103470629Y-85086386D01*
X103470628Y-85086386D01*
X103644902Y-85194292D01*
X103836028Y-85268334D01*
X103836039Y-85268337D01*
X104011999Y-85301230D01*
X104012000Y-85301230D01*
X104012000Y-84759444D01*
X104030452Y-84714896D01*
X104075000Y-84696444D01*
X104083958Y-84697084D01*
X104104237Y-84700000D01*
X104104243Y-84700000D01*
X104175757Y-84700000D01*
X104175763Y-84700000D01*
X104196034Y-84697085D01*
X104242754Y-84709009D01*
X104267359Y-84750477D01*
X104268000Y-84759444D01*
X104268000Y-85301230D01*
X104443960Y-85268337D01*
X104443971Y-85268334D01*
X104635097Y-85194292D01*
X104809370Y-85086386D01*
X104960841Y-84948301D01*
X104960848Y-84948294D01*
X105084365Y-84784731D01*
X105084370Y-84784723D01*
X105175731Y-84601246D01*
X105231827Y-84404093D01*
X105231827Y-84404091D01*
X105238878Y-84328000D01*
X104703000Y-84328000D01*
X104658452Y-84309548D01*
X104640000Y-84265000D01*
X104640000Y-84200000D01*
X105624417Y-84200000D01*
X105644700Y-84405936D01*
X105644702Y-84405942D01*
X105704766Y-84603952D01*
X105704767Y-84603954D01*
X105802312Y-84786446D01*
X105802314Y-84786449D01*
X105802315Y-84786450D01*
X105933590Y-84946410D01*
X106093550Y-85077685D01*
X106093551Y-85077685D01*
X106093553Y-85077687D01*
X106276045Y-85175232D01*
X106276047Y-85175233D01*
X106418763Y-85218524D01*
X106474066Y-85235300D01*
X106680000Y-85255583D01*
X106885934Y-85235300D01*
X107020264Y-85194552D01*
X107083952Y-85175233D01*
X107083954Y-85175232D01*
X107171886Y-85128231D01*
X107266450Y-85077685D01*
X107426410Y-84946410D01*
X107557685Y-84786450D01*
X107655232Y-84603954D01*
X107656054Y-84601246D01*
X107693439Y-84478000D01*
X107715300Y-84405934D01*
X107735583Y-84200000D01*
X107715300Y-83994066D01*
X107682718Y-83886655D01*
X107655233Y-83796047D01*
X107655232Y-83796045D01*
X107557687Y-83613553D01*
X107547958Y-83601698D01*
X107426410Y-83453590D01*
X107266450Y-83322315D01*
X107266449Y-83322314D01*
X107266446Y-83322312D01*
X107083954Y-83224767D01*
X107083952Y-83224766D01*
X106885942Y-83164702D01*
X106885936Y-83164700D01*
X106680000Y-83144417D01*
X106474063Y-83164700D01*
X106474057Y-83164702D01*
X106276047Y-83224766D01*
X106276045Y-83224767D01*
X106093553Y-83322312D01*
X105933590Y-83453590D01*
X105802312Y-83613553D01*
X105704767Y-83796045D01*
X105704766Y-83796047D01*
X105644702Y-83994057D01*
X105644700Y-83994063D01*
X105624417Y-84200000D01*
X104640000Y-84200000D01*
X104640000Y-84135000D01*
X104658452Y-84090452D01*
X104703000Y-84072000D01*
X105238877Y-84072000D01*
X105238877Y-84071999D01*
X105231827Y-83995908D01*
X105231827Y-83995906D01*
X105175731Y-83798753D01*
X105084370Y-83615276D01*
X105084365Y-83615268D01*
X104960848Y-83451705D01*
X104960841Y-83451698D01*
X104809370Y-83313613D01*
X104809371Y-83313613D01*
X104635097Y-83205707D01*
X104443971Y-83131665D01*
X104443961Y-83131662D01*
X104268000Y-83098768D01*
X104268000Y-83640555D01*
X104249548Y-83685103D01*
X104205000Y-83703555D01*
X104196037Y-83702914D01*
X104175764Y-83700000D01*
X104175763Y-83700000D01*
X104104237Y-83700000D01*
X104104236Y-83700000D01*
X104083963Y-83702914D01*
X104037244Y-83690988D01*
X104012641Y-83649518D01*
X104012000Y-83640555D01*
X104012000Y-83098768D01*
X103836038Y-83131662D01*
X103836028Y-83131665D01*
X103644902Y-83205707D01*
X103470629Y-83313613D01*
X103319158Y-83451698D01*
X103319151Y-83451705D01*
X103195634Y-83615268D01*
X103195629Y-83615276D01*
X103104268Y-83798753D01*
X103048172Y-83995906D01*
X103048172Y-83995908D01*
X103041122Y-84071999D01*
X103041123Y-84072000D01*
X103577000Y-84072000D01*
X103621548Y-84090452D01*
X103640000Y-84135000D01*
X103640000Y-84265000D01*
X103621548Y-84309548D01*
X103577000Y-84328000D01*
X103041122Y-84328000D01*
X102642976Y-84328000D01*
X102655583Y-84200000D01*
X102635300Y-83994066D01*
X102602718Y-83886655D01*
X102575233Y-83796047D01*
X102575232Y-83796045D01*
X102477687Y-83613553D01*
X102467958Y-83601698D01*
X102346410Y-83453590D01*
X102186450Y-83322315D01*
X102186449Y-83322314D01*
X102186446Y-83322312D01*
X102003954Y-83224767D01*
X102003952Y-83224766D01*
X101805942Y-83164702D01*
X101805936Y-83164700D01*
X101600000Y-83144417D01*
X101394063Y-83164700D01*
X101394057Y-83164702D01*
X101196047Y-83224766D01*
X101196045Y-83224767D01*
X101013553Y-83322312D01*
X100853590Y-83453590D01*
X100722312Y-83613553D01*
X100624767Y-83796045D01*
X100624766Y-83796047D01*
X100564702Y-83994057D01*
X100564700Y-83994063D01*
X100544417Y-84200000D01*
X100564700Y-84405936D01*
X100564702Y-84405942D01*
X100624766Y-84603952D01*
X100624767Y-84603954D01*
X100722312Y-84786446D01*
X100722314Y-84786449D01*
X100722315Y-84786450D01*
X100853590Y-84946410D01*
X100853593Y-84946412D01*
X100853692Y-84946533D01*
X100867689Y-84992675D01*
X100844959Y-85035200D01*
X100804992Y-85049500D01*
X100643409Y-85049500D01*
X100598861Y-85031048D01*
X100128952Y-84561138D01*
X100110500Y-84516590D01*
X100110500Y-83330255D01*
X100110500Y-83330254D01*
X100110500Y-83330252D01*
X100098867Y-83271769D01*
X100054552Y-83205448D01*
X99988231Y-83161133D01*
X99929748Y-83149500D01*
X98190252Y-83149500D01*
X98150506Y-83157406D01*
X98131768Y-83161133D01*
X98065449Y-83205447D01*
X98065447Y-83205449D01*
X98021133Y-83271768D01*
X98018916Y-83282916D01*
X98009500Y-83330252D01*
X98009500Y-85069748D01*
X95467828Y-85069748D01*
X95478410Y-85068072D01*
X95525299Y-85060647D01*
X95525299Y-85060646D01*
X95525304Y-85060646D01*
X95638342Y-85003050D01*
X95728050Y-84913342D01*
X95785646Y-84800304D01*
X95785646Y-84800302D01*
X95785647Y-84800301D01*
X95799173Y-84714896D01*
X95800500Y-84706519D01*
X95800499Y-84093482D01*
X95800499Y-84093481D01*
X95800499Y-84093477D01*
X95800498Y-84093476D01*
X95785647Y-83999700D01*
X95785646Y-83999698D01*
X95785646Y-83999696D01*
X95728050Y-83886658D01*
X95668951Y-83827558D01*
X95650500Y-83783012D01*
X95650500Y-81212699D01*
X95668952Y-81168151D01*
X95918151Y-80918952D01*
X95962699Y-80900500D01*
X96345754Y-80900500D01*
X96345760Y-80900500D01*
X96402479Y-80892236D01*
X96449218Y-80904071D01*
X96470591Y-80932572D01*
X96472387Y-80937390D01*
X96475713Y-80950423D01*
X96477334Y-80961695D01*
X96499334Y-81009868D01*
X96500195Y-81011946D01*
X96516462Y-81055560D01*
X96518705Y-81061572D01*
X96518706Y-81061574D01*
X96525525Y-81070683D01*
X96532394Y-81082258D01*
X96537123Y-81092612D01*
X96537125Y-81092614D01*
X96537125Y-81092615D01*
X96545034Y-81101742D01*
X96568451Y-81128767D01*
X96571799Y-81132630D01*
X96573203Y-81134372D01*
X96576221Y-81138403D01*
X96583277Y-81147830D01*
X96595162Y-81159716D01*
X96596689Y-81161355D01*
X96598865Y-81163867D01*
X96631369Y-81201380D01*
X96631371Y-81201381D01*
X96631372Y-81201382D01*
X96640944Y-81207533D01*
X96651430Y-81215983D01*
X96946514Y-81511066D01*
X96954965Y-81521554D01*
X96961116Y-81531126D01*
X96961117Y-81531127D01*
X96961118Y-81531128D01*
X97001151Y-81565816D01*
X97002789Y-81567342D01*
X97014669Y-81579221D01*
X97028108Y-81589281D01*
X97029852Y-81590686D01*
X97069888Y-81625377D01*
X97069889Y-81625377D01*
X97069890Y-81625378D01*
X97080237Y-81630104D01*
X97091818Y-81636975D01*
X97100930Y-81643796D01*
X97150552Y-81662303D01*
X97152624Y-81663162D01*
X97200804Y-81685165D01*
X97212065Y-81686784D01*
X97225116Y-81690114D01*
X97235778Y-81694091D01*
X97270537Y-81696576D01*
X97288605Y-81697869D01*
X97290838Y-81698109D01*
X97297843Y-81699116D01*
X97307453Y-81700499D01*
X97307457Y-81700499D01*
X97307462Y-81700500D01*
X97324272Y-81700500D01*
X97326497Y-81700579D01*
X97375077Y-81704053D01*
X97379333Y-81704358D01*
X97379333Y-81704357D01*
X97379334Y-81704358D01*
X97386300Y-81702842D01*
X97390450Y-81701940D01*
X97403842Y-81700500D01*
X102348941Y-81700500D01*
X102393489Y-81718952D01*
X102408749Y-81747502D01*
X102408758Y-81747499D01*
X102408794Y-81747586D01*
X102410730Y-81751208D01*
X102411132Y-81753230D01*
X102411133Y-81753231D01*
X102455448Y-81819552D01*
X102521769Y-81863867D01*
X102580252Y-81875500D01*
X102580255Y-81875500D01*
X103369745Y-81875500D01*
X103369748Y-81875500D01*
X103428231Y-81863867D01*
X103494552Y-81819552D01*
X103538867Y-81753231D01*
X103550500Y-81694748D01*
X103550500Y-80305252D01*
X103538867Y-80246769D01*
X103494552Y-80180448D01*
X103428231Y-80136133D01*
X103369748Y-80124500D01*
X103369745Y-80124500D01*
X102833410Y-80124500D01*
X102788862Y-80106048D01*
X102618952Y-79936138D01*
X102600500Y-79891590D01*
X102600500Y-78138500D01*
X102618952Y-78093952D01*
X102663500Y-78075500D01*
X103187301Y-78075500D01*
X103231849Y-78093952D01*
X103662308Y-78524411D01*
X103664663Y-78527047D01*
X103690118Y-78558967D01*
X103690119Y-78558967D01*
X103690121Y-78558970D01*
X103737351Y-78591171D01*
X103739271Y-78592480D01*
X103787115Y-78627792D01*
X103787395Y-78627890D01*
X103802076Y-78635301D01*
X103802327Y-78635472D01*
X103802329Y-78635472D01*
X103802330Y-78635473D01*
X103802331Y-78635474D01*
X103851240Y-78650559D01*
X103859177Y-78653007D01*
X103915301Y-78672646D01*
X103915396Y-78672649D01*
X103915591Y-78672657D01*
X103931815Y-78675412D01*
X103932098Y-78675500D01*
X103932100Y-78675500D01*
X103991574Y-78675500D01*
X104051010Y-78677724D01*
X104051165Y-78677682D01*
X104051298Y-78677647D01*
X104067603Y-78675500D01*
X105337300Y-78675500D01*
X105381848Y-78693952D01*
X106000785Y-79312889D01*
X106604849Y-79916952D01*
X106623301Y-79961500D01*
X106604849Y-80006048D01*
X106560301Y-80024500D01*
X105280252Y-80024500D01*
X105236389Y-80033224D01*
X105221768Y-80036133D01*
X105155449Y-80080447D01*
X105155447Y-80080449D01*
X105111133Y-80146768D01*
X105111132Y-80146769D01*
X105111133Y-80146769D01*
X105099500Y-80205252D01*
X105099500Y-80994748D01*
X105111133Y-81053231D01*
X105155448Y-81119552D01*
X105221769Y-81163867D01*
X105280252Y-81175500D01*
X105816590Y-81175500D01*
X105861138Y-81193952D01*
X107828254Y-83161068D01*
X107836701Y-83171550D01*
X107842857Y-83181128D01*
X107882882Y-83215809D01*
X107884520Y-83217335D01*
X107891952Y-83224766D01*
X107896407Y-83229221D01*
X107906793Y-83236995D01*
X107909863Y-83239294D01*
X107911607Y-83240699D01*
X107951627Y-83275377D01*
X107951628Y-83275377D01*
X107951629Y-83275378D01*
X107961976Y-83280104D01*
X107973557Y-83286975D01*
X107982669Y-83293796D01*
X108032291Y-83312303D01*
X108034363Y-83313162D01*
X108082543Y-83335165D01*
X108093804Y-83336784D01*
X108106854Y-83340114D01*
X108108909Y-83340880D01*
X108117517Y-83344091D01*
X108170346Y-83347869D01*
X108172550Y-83348105D01*
X108189201Y-83350500D01*
X108206002Y-83350500D01*
X108208229Y-83350579D01*
X108256492Y-83354031D01*
X108261072Y-83354359D01*
X108261072Y-83354358D01*
X108261073Y-83354359D01*
X108272192Y-83351940D01*
X108285585Y-83350500D01*
X108424992Y-83350500D01*
X108469540Y-83368952D01*
X108487992Y-83413500D01*
X108473692Y-83453467D01*
X108473593Y-83453587D01*
X108473590Y-83453590D01*
X108386622Y-83559560D01*
X108342312Y-83613553D01*
X108244767Y-83796045D01*
X108244766Y-83796047D01*
X108184702Y-83994057D01*
X108184700Y-83994063D01*
X108164417Y-84199999D01*
X108184700Y-84405936D01*
X108184702Y-84405942D01*
X108244766Y-84603952D01*
X108244767Y-84603954D01*
X108342312Y-84786446D01*
X108342314Y-84786449D01*
X108342315Y-84786450D01*
X108473590Y-84946410D01*
X108633550Y-85077685D01*
X108633551Y-85077685D01*
X108633553Y-85077687D01*
X108816045Y-85175232D01*
X108816047Y-85175233D01*
X108958763Y-85218524D01*
X109014066Y-85235300D01*
X109220000Y-85255583D01*
X109425934Y-85235300D01*
X109560264Y-85194552D01*
X109623952Y-85175233D01*
X109623954Y-85175232D01*
X109711886Y-85128231D01*
X109806450Y-85077685D01*
X109966410Y-84946410D01*
X110097685Y-84786450D01*
X110195232Y-84603954D01*
X110196054Y-84601246D01*
X110233439Y-84478000D01*
X110255300Y-84405934D01*
X110275583Y-84200000D01*
X110255300Y-83994066D01*
X110222718Y-83886655D01*
X110195233Y-83796047D01*
X110195232Y-83796045D01*
X110097687Y-83613553D01*
X110087958Y-83601698D01*
X109966410Y-83453590D01*
X109966406Y-83453587D01*
X109966308Y-83453467D01*
X109952311Y-83407325D01*
X109975041Y-83364800D01*
X110015008Y-83350500D01*
X110750075Y-83350500D01*
X110763467Y-83351940D01*
X110774587Y-83354359D01*
X110827430Y-83350579D01*
X110829658Y-83350500D01*
X110846454Y-83350500D01*
X110846459Y-83350500D01*
X110863078Y-83348109D01*
X110865308Y-83347870D01*
X110895590Y-83345703D01*
X110918143Y-83344091D01*
X110928803Y-83340114D01*
X110941855Y-83336784D01*
X110944224Y-83336443D01*
X110953117Y-83335165D01*
X110974461Y-83325416D01*
X111022648Y-83323693D01*
X111057940Y-83356548D01*
X111059664Y-83404735D01*
X111040603Y-83431421D01*
X111013591Y-83453589D01*
X111013590Y-83453590D01*
X110882312Y-83613553D01*
X110784767Y-83796045D01*
X110784766Y-83796047D01*
X110724702Y-83994057D01*
X110724700Y-83994063D01*
X110704417Y-84199999D01*
X110724700Y-84405936D01*
X110724702Y-84405942D01*
X110784766Y-84603952D01*
X110784767Y-84603954D01*
X110882312Y-84786446D01*
X110882314Y-84786449D01*
X110882315Y-84786450D01*
X111013590Y-84946410D01*
X111173550Y-85077685D01*
X111173551Y-85077685D01*
X111173553Y-85077687D01*
X111356045Y-85175232D01*
X111356047Y-85175233D01*
X111498763Y-85218524D01*
X111554066Y-85235300D01*
X111760000Y-85255583D01*
X111965934Y-85235300D01*
X112100264Y-85194552D01*
X112163952Y-85175233D01*
X112163954Y-85175232D01*
X112251886Y-85128231D01*
X112346450Y-85077685D01*
X112506410Y-84946410D01*
X112637685Y-84786450D01*
X112735232Y-84603954D01*
X112736054Y-84601246D01*
X112773439Y-84478000D01*
X112795300Y-84405934D01*
X112815583Y-84200000D01*
X112815583Y-84199999D01*
X113244417Y-84199999D01*
X113264700Y-84405936D01*
X113264702Y-84405942D01*
X113324766Y-84603952D01*
X113324767Y-84603954D01*
X113422312Y-84786446D01*
X113422314Y-84786449D01*
X113422315Y-84786450D01*
X113553590Y-84946410D01*
X113713550Y-85077685D01*
X113713551Y-85077685D01*
X113713553Y-85077687D01*
X113896045Y-85175232D01*
X113896047Y-85175233D01*
X114038763Y-85218524D01*
X114094066Y-85235300D01*
X114300000Y-85255583D01*
X114505934Y-85235300D01*
X114640264Y-85194552D01*
X114703952Y-85175233D01*
X114703954Y-85175232D01*
X114791886Y-85128231D01*
X114886450Y-85077685D01*
X115046410Y-84946410D01*
X115177685Y-84786450D01*
X115275232Y-84603954D01*
X115276054Y-84601246D01*
X115313439Y-84478000D01*
X115335300Y-84405934D01*
X115355583Y-84200000D01*
X115335300Y-83994066D01*
X115302718Y-83886655D01*
X115275233Y-83796047D01*
X115275232Y-83796045D01*
X115177687Y-83613553D01*
X115167958Y-83601698D01*
X115046410Y-83453590D01*
X114886450Y-83322315D01*
X114886449Y-83322314D01*
X114886446Y-83322312D01*
X114703954Y-83224767D01*
X114703952Y-83224766D01*
X114505942Y-83164702D01*
X114505936Y-83164700D01*
X114300000Y-83144417D01*
X114094063Y-83164700D01*
X114094057Y-83164702D01*
X113896047Y-83224766D01*
X113896045Y-83224767D01*
X113713553Y-83322312D01*
X113553590Y-83453590D01*
X113422312Y-83613553D01*
X113324767Y-83796045D01*
X113324766Y-83796047D01*
X113264702Y-83994057D01*
X113264700Y-83994063D01*
X113244417Y-84199999D01*
X112815583Y-84199999D01*
X112795300Y-83994066D01*
X112762718Y-83886655D01*
X112735233Y-83796047D01*
X112735232Y-83796045D01*
X112637687Y-83613553D01*
X112627958Y-83601698D01*
X112506410Y-83453590D01*
X112346450Y-83322315D01*
X112346449Y-83322314D01*
X112346446Y-83322312D01*
X112163954Y-83224767D01*
X112163952Y-83224766D01*
X111965942Y-83164702D01*
X111965936Y-83164700D01*
X111760000Y-83144417D01*
X111554063Y-83164700D01*
X111554057Y-83164702D01*
X111356047Y-83224766D01*
X111356045Y-83224767D01*
X111278366Y-83266288D01*
X111230380Y-83271014D01*
X111193107Y-83240425D01*
X111188381Y-83192439D01*
X111195665Y-83176673D01*
X111198960Y-83171546D01*
X111207401Y-83161071D01*
X112011071Y-82357401D01*
X112021553Y-82348956D01*
X112031128Y-82342803D01*
X112065829Y-82302753D01*
X112067316Y-82301156D01*
X112079221Y-82289253D01*
X112089295Y-82275793D01*
X112090688Y-82274064D01*
X112125377Y-82234033D01*
X112130101Y-82223686D01*
X112136975Y-82212102D01*
X112143796Y-82202991D01*
X112162312Y-82153345D01*
X112163154Y-82151310D01*
X112185165Y-82103117D01*
X112186784Y-82091855D01*
X112190114Y-82078803D01*
X112194091Y-82068143D01*
X112197870Y-82015308D01*
X112198111Y-82013069D01*
X112200499Y-81996465D01*
X112200500Y-81996459D01*
X112200500Y-81979658D01*
X112200579Y-81977431D01*
X112202422Y-81951655D01*
X112203686Y-81934004D01*
X112225270Y-81890887D01*
X112266525Y-81875500D01*
X112969745Y-81875500D01*
X112969748Y-81875500D01*
X113028231Y-81863867D01*
X113094552Y-81819552D01*
X113138867Y-81753231D01*
X113150500Y-81694748D01*
X113150500Y-81563500D01*
X113168952Y-81518952D01*
X113213500Y-81500500D01*
X115139415Y-81500500D01*
X115152807Y-81501940D01*
X115163927Y-81504359D01*
X115216770Y-81500579D01*
X115218998Y-81500500D01*
X115235794Y-81500500D01*
X115235799Y-81500500D01*
X115252418Y-81498109D01*
X115254648Y-81497870D01*
X115284930Y-81495703D01*
X115307483Y-81494091D01*
X115318143Y-81490114D01*
X115331195Y-81486784D01*
X115333564Y-81486443D01*
X115342457Y-81485165D01*
X115390650Y-81463154D01*
X115392685Y-81462312D01*
X115442331Y-81443796D01*
X115451442Y-81436974D01*
X115463028Y-81430101D01*
X115473373Y-81425377D01*
X115513404Y-81390688D01*
X115515133Y-81389295D01*
X115528593Y-81379221D01*
X115540496Y-81367316D01*
X115542093Y-81365829D01*
X115582143Y-81331128D01*
X115588296Y-81321553D01*
X115596741Y-81311071D01*
X115791952Y-81115860D01*
X115836499Y-81097409D01*
X115881047Y-81115861D01*
X115899499Y-81160409D01*
X115899499Y-81541759D01*
X115899500Y-81541762D01*
X115902353Y-81572197D01*
X115904811Y-81579221D01*
X115947207Y-81700382D01*
X116027850Y-81809650D01*
X116137118Y-81890293D01*
X116257308Y-81932349D01*
X116293260Y-81964478D01*
X116299499Y-81991813D01*
X116299500Y-82239415D01*
X116298060Y-82252806D01*
X116295641Y-82263927D01*
X116295640Y-82263927D01*
X116297452Y-82289252D01*
X116299420Y-82316770D01*
X116299500Y-82318998D01*
X116299500Y-82335801D01*
X116301890Y-82352432D01*
X116302130Y-82354665D01*
X116305908Y-82407478D01*
X116305910Y-82407486D01*
X116309884Y-82418143D01*
X116313213Y-82431184D01*
X116314834Y-82442456D01*
X116336834Y-82490629D01*
X116337695Y-82492707D01*
X116356205Y-82542333D01*
X116356206Y-82542335D01*
X116363025Y-82551444D01*
X116369894Y-82563019D01*
X116374623Y-82573373D01*
X116396855Y-82599030D01*
X116411703Y-82632060D01*
X116414956Y-82656763D01*
X116414957Y-82656766D01*
X116475463Y-82802839D01*
X116475464Y-82802841D01*
X116571714Y-82928278D01*
X116571721Y-82928285D01*
X116697155Y-83024533D01*
X116697159Y-83024536D01*
X116726056Y-83036505D01*
X116760150Y-83070599D01*
X116760151Y-83118818D01*
X116726056Y-83152913D01*
X116708121Y-83157406D01*
X116634066Y-83164700D01*
X116634063Y-83164700D01*
X116634062Y-83164701D01*
X116634057Y-83164702D01*
X116436047Y-83224766D01*
X116436045Y-83224767D01*
X116253553Y-83322312D01*
X116093590Y-83453590D01*
X115962312Y-83613553D01*
X115864767Y-83796045D01*
X115864766Y-83796047D01*
X115804702Y-83994057D01*
X115804700Y-83994063D01*
X115784417Y-84199999D01*
X115804700Y-84405936D01*
X115804702Y-84405942D01*
X115864766Y-84603952D01*
X115864767Y-84603954D01*
X115962312Y-84786446D01*
X115962314Y-84786449D01*
X115962315Y-84786450D01*
X116093590Y-84946410D01*
X116253550Y-85077685D01*
X116253551Y-85077685D01*
X116253553Y-85077687D01*
X116436045Y-85175232D01*
X116436047Y-85175233D01*
X116578763Y-85218524D01*
X116634066Y-85235300D01*
X116840000Y-85255583D01*
X117045934Y-85235300D01*
X117180264Y-85194552D01*
X117243952Y-85175233D01*
X117243954Y-85175232D01*
X117331886Y-85128231D01*
X117426450Y-85077685D01*
X117586410Y-84946410D01*
X117717685Y-84786450D01*
X117815232Y-84603954D01*
X117816054Y-84601246D01*
X117853439Y-84478000D01*
X117875300Y-84405934D01*
X117895583Y-84200000D01*
X118324417Y-84200000D01*
X118344700Y-84405936D01*
X118344702Y-84405942D01*
X118404766Y-84603952D01*
X118404767Y-84603954D01*
X118502312Y-84786446D01*
X118502314Y-84786449D01*
X118502315Y-84786450D01*
X118633590Y-84946410D01*
X118793550Y-85077685D01*
X118793551Y-85077685D01*
X118793553Y-85077687D01*
X118976045Y-85175232D01*
X118976047Y-85175233D01*
X119118763Y-85218524D01*
X119174066Y-85235300D01*
X119380000Y-85255583D01*
X119585934Y-85235300D01*
X119720264Y-85194552D01*
X119783952Y-85175233D01*
X119783954Y-85175232D01*
X119871886Y-85128231D01*
X119966450Y-85077685D01*
X120126410Y-84946410D01*
X120257685Y-84786450D01*
X120355232Y-84603954D01*
X120356054Y-84601246D01*
X120393439Y-84478000D01*
X120415300Y-84405934D01*
X120422976Y-84328000D01*
X120821122Y-84328000D01*
X120828172Y-84404091D01*
X120828172Y-84404093D01*
X120884268Y-84601246D01*
X120975629Y-84784723D01*
X120975634Y-84784731D01*
X121099151Y-84948294D01*
X121099158Y-84948301D01*
X121250629Y-85086386D01*
X121250628Y-85086386D01*
X121424902Y-85194292D01*
X121616028Y-85268334D01*
X121616039Y-85268337D01*
X121791999Y-85301230D01*
X121792000Y-85301230D01*
X121792000Y-84759444D01*
X121810452Y-84714896D01*
X121855000Y-84696444D01*
X121863958Y-84697084D01*
X121884237Y-84700000D01*
X121884243Y-84700000D01*
X121955757Y-84700000D01*
X121955763Y-84700000D01*
X121976034Y-84697085D01*
X122022754Y-84709009D01*
X122047359Y-84750477D01*
X122048000Y-84759444D01*
X122048000Y-85301230D01*
X122223960Y-85268337D01*
X122223971Y-85268334D01*
X122415097Y-85194292D01*
X122589370Y-85086386D01*
X122740841Y-84948301D01*
X122740848Y-84948294D01*
X122864365Y-84784731D01*
X122864370Y-84784723D01*
X122955731Y-84601246D01*
X123011827Y-84404093D01*
X123011827Y-84404091D01*
X123018878Y-84328000D01*
X122483000Y-84328000D01*
X122438452Y-84309548D01*
X122420000Y-84265000D01*
X122420000Y-84135000D01*
X122438452Y-84090452D01*
X122483000Y-84072000D01*
X123018877Y-84072000D01*
X123018877Y-84071999D01*
X123011827Y-83995908D01*
X123011827Y-83995906D01*
X122955731Y-83798753D01*
X122864370Y-83615276D01*
X122864365Y-83615268D01*
X122740848Y-83451705D01*
X122740841Y-83451698D01*
X122589370Y-83313613D01*
X122589371Y-83313613D01*
X122415097Y-83205707D01*
X122223971Y-83131665D01*
X122223961Y-83131662D01*
X122047999Y-83098768D01*
X122048000Y-83640555D01*
X122029548Y-83685103D01*
X121985000Y-83703555D01*
X121976037Y-83702914D01*
X121955764Y-83700000D01*
X121955763Y-83700000D01*
X121884237Y-83700000D01*
X121884236Y-83700000D01*
X121863963Y-83702914D01*
X121817244Y-83690988D01*
X121792641Y-83649518D01*
X121792000Y-83640555D01*
X121792000Y-83098768D01*
X121616038Y-83131662D01*
X121616028Y-83131665D01*
X121424902Y-83205707D01*
X121250629Y-83313613D01*
X121099158Y-83451698D01*
X121099151Y-83451705D01*
X120975634Y-83615268D01*
X120975629Y-83615276D01*
X120884268Y-83798753D01*
X120828172Y-83995906D01*
X120828172Y-83995908D01*
X120821122Y-84071999D01*
X120821123Y-84072000D01*
X121357000Y-84072000D01*
X121401548Y-84090452D01*
X121420000Y-84135000D01*
X121420000Y-84265000D01*
X121401548Y-84309548D01*
X121357000Y-84328000D01*
X120821122Y-84328000D01*
X120422976Y-84328000D01*
X120435583Y-84200000D01*
X120415300Y-83994066D01*
X120382718Y-83886655D01*
X120355233Y-83796047D01*
X120355232Y-83796045D01*
X120257687Y-83613553D01*
X120247958Y-83601698D01*
X120126410Y-83453590D01*
X119966450Y-83322315D01*
X119966449Y-83322314D01*
X119966446Y-83322312D01*
X119783954Y-83224767D01*
X119783952Y-83224766D01*
X119585942Y-83164702D01*
X119585936Y-83164700D01*
X119431608Y-83149500D01*
X119380000Y-83144417D01*
X119379999Y-83144417D01*
X119174063Y-83164700D01*
X119174057Y-83164702D01*
X118976047Y-83224766D01*
X118976045Y-83224767D01*
X118793553Y-83322312D01*
X118633590Y-83453590D01*
X118502312Y-83613553D01*
X118404767Y-83796045D01*
X118404766Y-83796047D01*
X118344702Y-83994057D01*
X118344700Y-83994063D01*
X118324417Y-84200000D01*
X117895583Y-84200000D01*
X117875300Y-83994066D01*
X117842718Y-83886655D01*
X117815233Y-83796047D01*
X117815232Y-83796045D01*
X117717687Y-83613553D01*
X117707958Y-83601698D01*
X117586410Y-83453590D01*
X117426450Y-83322315D01*
X117426449Y-83322314D01*
X117426446Y-83322312D01*
X117243954Y-83224767D01*
X117243952Y-83224766D01*
X117167393Y-83201543D01*
X117130120Y-83170954D01*
X117125394Y-83122968D01*
X117155983Y-83085695D01*
X117161572Y-83083052D01*
X117228264Y-83055426D01*
X117302841Y-83024536D01*
X117428282Y-82928282D01*
X117524536Y-82802841D01*
X117558284Y-82721365D01*
X117585043Y-82656766D01*
X117585043Y-82656764D01*
X117585044Y-82656762D01*
X117605682Y-82500000D01*
X117604380Y-82490114D01*
X117600719Y-82462301D01*
X117585044Y-82343238D01*
X117585043Y-82343235D01*
X117585043Y-82343233D01*
X117532971Y-82217524D01*
X117524536Y-82197159D01*
X117476719Y-82134842D01*
X117428285Y-82071721D01*
X117428278Y-82071714D01*
X117369197Y-82026380D01*
X117345088Y-81984622D01*
X117357568Y-81938047D01*
X117386738Y-81916936D01*
X117462882Y-81890293D01*
X117572150Y-81809650D01*
X117615370Y-81751088D01*
X117656669Y-81726204D01*
X117666059Y-81725500D01*
X117933941Y-81725500D01*
X117978489Y-81743952D01*
X117984626Y-81751083D01*
X118027850Y-81809650D01*
X118137118Y-81890293D01*
X118265301Y-81935146D01*
X118295734Y-81938000D01*
X118295740Y-81938000D01*
X119304260Y-81938000D01*
X119304266Y-81938000D01*
X119334699Y-81935146D01*
X119462882Y-81890293D01*
X119572150Y-81809650D01*
X119615370Y-81751088D01*
X119656669Y-81726204D01*
X119666059Y-81725500D01*
X119933941Y-81725500D01*
X119978489Y-81743952D01*
X119984626Y-81751083D01*
X120027850Y-81809650D01*
X120137118Y-81890293D01*
X120265301Y-81935146D01*
X120295734Y-81938000D01*
X120295740Y-81938000D01*
X121304260Y-81938000D01*
X121304266Y-81938000D01*
X121334699Y-81935146D01*
X121462882Y-81890293D01*
X121572150Y-81809650D01*
X121615370Y-81751088D01*
X121656669Y-81726204D01*
X121666059Y-81725500D01*
X121933941Y-81725500D01*
X121978489Y-81743952D01*
X121984626Y-81751083D01*
X122027850Y-81809650D01*
X122137118Y-81890293D01*
X122265301Y-81935146D01*
X122295734Y-81938000D01*
X122295740Y-81938000D01*
X123304260Y-81938000D01*
X123304266Y-81938000D01*
X123334699Y-81935146D01*
X123462882Y-81890293D01*
X123572150Y-81809650D01*
X123652793Y-81700382D01*
X123697646Y-81572199D01*
X123700500Y-81541766D01*
X123700500Y-80908234D01*
X123700290Y-80906000D01*
X123698325Y-80885043D01*
X123697646Y-80877801D01*
X123652793Y-80749618D01*
X123572150Y-80640350D01*
X123462882Y-80559707D01*
X123354390Y-80521744D01*
X123334697Y-80514853D01*
X123313875Y-80512901D01*
X123304266Y-80512000D01*
X122295734Y-80512000D01*
X122288526Y-80512675D01*
X122265302Y-80514853D01*
X122137117Y-80559706D01*
X122137118Y-80559707D01*
X122027850Y-80640350D01*
X121984629Y-80698911D01*
X121943331Y-80723796D01*
X121933941Y-80724500D01*
X121666059Y-80724500D01*
X121621511Y-80706048D01*
X121615373Y-80698916D01*
X121572150Y-80640350D01*
X121462882Y-80559707D01*
X121354390Y-80521744D01*
X121334697Y-80514853D01*
X121313875Y-80512901D01*
X121304266Y-80512000D01*
X120295734Y-80512000D01*
X120288526Y-80512675D01*
X120265302Y-80514853D01*
X120137117Y-80559706D01*
X120137118Y-80559707D01*
X120027850Y-80640350D01*
X119984629Y-80698911D01*
X119943331Y-80723796D01*
X119933941Y-80724500D01*
X119666059Y-80724500D01*
X119621511Y-80706048D01*
X119615373Y-80698916D01*
X119572150Y-80640350D01*
X119462882Y-80559707D01*
X119354390Y-80521744D01*
X119334697Y-80514853D01*
X119313875Y-80512901D01*
X119304266Y-80512000D01*
X118295734Y-80512000D01*
X118288526Y-80512675D01*
X118265302Y-80514853D01*
X118137117Y-80559706D01*
X118137118Y-80559707D01*
X118027850Y-80640350D01*
X117984629Y-80698911D01*
X117943331Y-80723796D01*
X117933941Y-80724500D01*
X117666059Y-80724500D01*
X117621511Y-80706048D01*
X117615373Y-80698916D01*
X117572150Y-80640350D01*
X117462882Y-80559707D01*
X117354390Y-80521744D01*
X117334697Y-80514853D01*
X117313875Y-80512901D01*
X117304266Y-80512000D01*
X117304262Y-80512000D01*
X116547910Y-80512000D01*
X116503362Y-80493548D01*
X116484910Y-80449000D01*
X116503362Y-80404452D01*
X116776362Y-80131452D01*
X116820910Y-80113000D01*
X117304260Y-80113000D01*
X117304266Y-80113000D01*
X117334699Y-80110146D01*
X117462882Y-80065293D01*
X117572150Y-79984650D01*
X117652793Y-79875382D01*
X117697646Y-79747199D01*
X117700500Y-79716766D01*
X117700499Y-79387247D01*
X117718951Y-79342700D01*
X117763499Y-79324248D01*
X117808047Y-79342700D01*
X117808047Y-79342701D01*
X117881047Y-79415702D01*
X117899499Y-79460249D01*
X117899499Y-79716759D01*
X117899500Y-79716762D01*
X117902353Y-79747197D01*
X117910911Y-79771654D01*
X117947207Y-79875382D01*
X118027850Y-79984650D01*
X118137118Y-80065293D01*
X118265301Y-80110146D01*
X118295734Y-80113000D01*
X118295740Y-80113000D01*
X119304260Y-80113000D01*
X119304266Y-80113000D01*
X119334699Y-80110146D01*
X119462882Y-80065293D01*
X119572150Y-79984650D01*
X119652793Y-79875382D01*
X119697646Y-79747199D01*
X119700500Y-79716766D01*
X119700500Y-79089696D01*
X119718951Y-79045151D01*
X119763499Y-79026699D01*
X119808046Y-79045151D01*
X119881047Y-79118151D01*
X119899500Y-79162699D01*
X119899500Y-79716762D01*
X119902353Y-79747197D01*
X119910911Y-79771654D01*
X119947207Y-79875382D01*
X120027850Y-79984650D01*
X120137118Y-80065293D01*
X120265301Y-80110146D01*
X120295734Y-80113000D01*
X120295740Y-80113000D01*
X121304260Y-80113000D01*
X121304266Y-80113000D01*
X121334699Y-80110146D01*
X121462882Y-80065293D01*
X121572150Y-79984650D01*
X121652793Y-79875382D01*
X121697646Y-79747199D01*
X121700500Y-79716766D01*
X121700500Y-79160410D01*
X121718952Y-79115862D01*
X121763500Y-79097410D01*
X121808048Y-79115862D01*
X121881048Y-79188862D01*
X121899500Y-79233410D01*
X121899500Y-79716762D01*
X121902353Y-79747197D01*
X121910911Y-79771654D01*
X121947207Y-79875382D01*
X122027850Y-79984650D01*
X122137118Y-80065293D01*
X122265301Y-80110146D01*
X122295734Y-80113000D01*
X122295740Y-80113000D01*
X123304260Y-80113000D01*
X123304266Y-80113000D01*
X123334699Y-80110146D01*
X123462882Y-80065293D01*
X123572150Y-79984650D01*
X123652793Y-79875382D01*
X123697646Y-79747199D01*
X123700500Y-79716766D01*
X123700500Y-79083234D01*
X123697646Y-79052801D01*
X123652793Y-78924618D01*
X123572150Y-78815350D01*
X123462882Y-78734707D01*
X123393884Y-78710563D01*
X123334697Y-78689853D01*
X123313875Y-78687901D01*
X123304266Y-78687000D01*
X123304262Y-78687000D01*
X122820910Y-78687000D01*
X122776362Y-78668548D01*
X119821744Y-75713930D01*
X119813294Y-75703444D01*
X119807143Y-75693872D01*
X119767117Y-75659190D01*
X119765478Y-75657663D01*
X119753590Y-75645776D01*
X119740144Y-75635711D01*
X119738391Y-75634299D01*
X119728035Y-75625325D01*
X119706453Y-75582209D01*
X119721679Y-75536458D01*
X119764797Y-75514875D01*
X119769292Y-75514714D01*
X121984757Y-75514714D01*
X121986799Y-75514780D01*
X122069468Y-75520198D01*
X122253136Y-75533333D01*
X122257014Y-75533854D01*
X122375239Y-75557370D01*
X122521142Y-75589110D01*
X122524539Y-75590052D01*
X122645215Y-75631016D01*
X122778992Y-75680912D01*
X122781878Y-75682158D01*
X122898739Y-75739787D01*
X123021904Y-75807040D01*
X123024289Y-75808484D01*
X123082361Y-75847286D01*
X123133113Y-75881198D01*
X123134484Y-75882168D01*
X123245381Y-75965184D01*
X123247258Y-75966706D01*
X123269944Y-75986601D01*
X123346037Y-76053333D01*
X123347542Y-76054742D01*
X123445256Y-76152456D01*
X123446665Y-76153961D01*
X123533287Y-76252734D01*
X123534822Y-76254627D01*
X123617826Y-76365508D01*
X123618800Y-76366885D01*
X123691508Y-76475699D01*
X123692964Y-76478104D01*
X123760210Y-76601257D01*
X123817633Y-76717699D01*
X123817830Y-76718097D01*
X123819093Y-76721023D01*
X123836434Y-76767516D01*
X123863166Y-76839189D01*
X123868985Y-76854789D01*
X123909942Y-76975448D01*
X123910895Y-76978881D01*
X123942637Y-77124803D01*
X123966141Y-77242968D01*
X123966666Y-77246870D01*
X123979804Y-77430578D01*
X123983076Y-77480496D01*
X123985219Y-77513200D01*
X123985286Y-77515244D01*
X123985286Y-89984755D01*
X123985219Y-89986800D01*
X123983323Y-90015725D01*
X123979804Y-90069421D01*
X123966666Y-90253128D01*
X123966141Y-90257029D01*
X123942637Y-90375196D01*
X123910895Y-90521117D01*
X123909942Y-90524549D01*
X123868985Y-90645210D01*
X123819093Y-90778975D01*
X123817830Y-90781901D01*
X123760213Y-90898738D01*
X123692964Y-91021894D01*
X123691508Y-91024299D01*
X123618800Y-91133113D01*
X123617826Y-91134490D01*
X123534822Y-91245371D01*
X123533287Y-91247264D01*
X123446665Y-91346037D01*
X123445256Y-91347542D01*
X123347542Y-91445256D01*
X123346037Y-91446665D01*
X123247264Y-91533287D01*
X123245371Y-91534822D01*
X123134490Y-91617826D01*
X123133113Y-91618800D01*
X123024299Y-91691508D01*
X123021894Y-91692964D01*
X122898738Y-91760213D01*
X122781901Y-91817830D01*
X122778975Y-91819093D01*
X122645210Y-91868985D01*
X122524549Y-91909942D01*
X122521117Y-91910895D01*
X122375196Y-91942637D01*
X122257029Y-91966141D01*
X122253128Y-91966666D01*
X122069421Y-91979804D01*
X122018073Y-91983170D01*
X121986799Y-91985219D01*
X121984756Y-91985286D01*
X63515244Y-91985286D01*
X63513200Y-91985219D01*
X63480496Y-91983076D01*
X63430578Y-91979804D01*
X63246870Y-91966666D01*
X63242968Y-91966141D01*
X63124803Y-91942637D01*
X62978881Y-91910895D01*
X62975448Y-91909942D01*
X62854789Y-91868985D01*
X62721023Y-91819093D01*
X62718102Y-91817832D01*
X62601257Y-91760210D01*
X62478104Y-91692964D01*
X62475699Y-91691508D01*
X62366885Y-91618800D01*
X62365508Y-91617826D01*
X62254627Y-91534822D01*
X62252734Y-91533287D01*
X62153961Y-91446665D01*
X62152456Y-91445256D01*
X62054742Y-91347542D01*
X62053333Y-91346037D01*
X61966711Y-91247264D01*
X61965184Y-91245381D01*
X61882168Y-91134484D01*
X61881198Y-91133113D01*
X61856338Y-91095907D01*
X61808484Y-91024289D01*
X61807040Y-91021904D01*
X61739787Y-90898738D01*
X61682158Y-90781878D01*
X61680912Y-90778992D01*
X61631015Y-90645210D01*
X61590052Y-90524539D01*
X61589110Y-90521142D01*
X61557370Y-90375239D01*
X61533854Y-90257014D01*
X61533333Y-90253136D01*
X61520194Y-90069410D01*
X61517467Y-90027793D01*
X61514780Y-89986800D01*
X61514714Y-89984756D01*
X61514714Y-85219744D01*
X62609499Y-85219744D01*
X62613303Y-85238866D01*
X62621133Y-85278231D01*
X62665448Y-85344552D01*
X62731769Y-85388867D01*
X62790252Y-85400500D01*
X62790255Y-85400500D01*
X64529745Y-85400500D01*
X64529748Y-85400500D01*
X64588231Y-85388867D01*
X64654552Y-85344552D01*
X64698867Y-85278231D01*
X64710500Y-85219748D01*
X64710500Y-84350000D01*
X65144417Y-84350000D01*
X65164700Y-84555936D01*
X65164702Y-84555942D01*
X65224766Y-84753952D01*
X65224767Y-84753954D01*
X65322312Y-84936446D01*
X65322314Y-84936449D01*
X65322315Y-84936450D01*
X65453590Y-85096410D01*
X65613550Y-85227685D01*
X65613551Y-85227685D01*
X65613553Y-85227687D01*
X65796045Y-85325232D01*
X65796047Y-85325233D01*
X65917156Y-85361970D01*
X65994066Y-85385300D01*
X66200000Y-85405583D01*
X66405934Y-85385300D01*
X66517313Y-85351513D01*
X66565297Y-85356239D01*
X66580148Y-85367252D01*
X71562408Y-90349511D01*
X71564763Y-90352147D01*
X71590218Y-90384067D01*
X71590219Y-90384067D01*
X71590221Y-90384070D01*
X71638030Y-90416666D01*
X71639371Y-90417580D01*
X71687215Y-90452892D01*
X71687495Y-90452990D01*
X71702176Y-90460401D01*
X71702427Y-90460572D01*
X71702429Y-90460572D01*
X71702430Y-90460573D01*
X71702431Y-90460574D01*
X71759277Y-90478107D01*
X71815401Y-90497746D01*
X71815513Y-90497750D01*
X71815692Y-90497757D01*
X71831912Y-90500511D01*
X71832198Y-90500600D01*
X71832202Y-90500600D01*
X71891659Y-90500600D01*
X71951110Y-90502825D01*
X71951407Y-90502745D01*
X71967707Y-90500600D01*
X89822827Y-90500600D01*
X89826356Y-90500798D01*
X89866935Y-90505370D01*
X89919696Y-90495386D01*
X89925380Y-90494311D01*
X89984184Y-90485449D01*
X89984185Y-90485448D01*
X89984187Y-90485448D01*
X89984440Y-90485325D01*
X90000087Y-90480177D01*
X90000192Y-90480157D01*
X90000372Y-90480123D01*
X90052972Y-90452322D01*
X90106542Y-90426525D01*
X90106754Y-90426327D01*
X90120177Y-90416804D01*
X90120438Y-90416666D01*
X90120440Y-90416664D01*
X90162500Y-90374603D01*
X90162499Y-90374602D01*
X90206094Y-90334155D01*
X90206239Y-90333902D01*
X90216251Y-90320851D01*
X90718051Y-89819052D01*
X90762600Y-89800600D01*
X91615045Y-89800600D01*
X91615048Y-89800600D01*
X91673531Y-89788967D01*
X91739852Y-89744652D01*
X91784167Y-89678331D01*
X91795800Y-89619848D01*
X92904200Y-89619848D01*
X92915833Y-89678331D01*
X92960148Y-89744652D01*
X93026469Y-89788967D01*
X93084952Y-89800600D01*
X93084955Y-89800600D01*
X94115045Y-89800600D01*
X94115048Y-89800600D01*
X94173531Y-89788967D01*
X94239852Y-89744652D01*
X94284167Y-89678331D01*
X94295800Y-89619848D01*
X94295800Y-88346421D01*
X94314252Y-88301874D01*
X94358800Y-88283422D01*
X94366371Y-88283879D01*
X94457955Y-88295000D01*
X94457959Y-88295000D01*
X94542037Y-88295000D01*
X94542041Y-88295000D01*
X94667544Y-88279761D01*
X94825353Y-88219912D01*
X94964253Y-88124036D01*
X95076173Y-87997705D01*
X95154608Y-87848261D01*
X95194998Y-87684388D01*
X95194998Y-87515612D01*
X95154608Y-87351739D01*
X95076173Y-87202295D01*
X94964253Y-87075964D01*
X94825353Y-86980088D01*
X94825353Y-86980087D01*
X94667545Y-86920239D01*
X94633605Y-86916118D01*
X94542041Y-86905000D01*
X94457955Y-86905000D01*
X94366393Y-86916117D01*
X94319947Y-86903170D01*
X94296259Y-86861171D01*
X94295800Y-86853577D01*
X94295800Y-85580155D01*
X94295800Y-85580154D01*
X94295800Y-85580152D01*
X94284167Y-85521669D01*
X94239852Y-85455348D01*
X94173531Y-85411033D01*
X94115048Y-85399400D01*
X94115045Y-85399400D01*
X94113500Y-85399400D01*
X94113016Y-85399199D01*
X94111965Y-85399096D01*
X94111996Y-85398777D01*
X94068952Y-85380948D01*
X94050500Y-85336400D01*
X94050500Y-84966988D01*
X94068952Y-84922440D01*
X94078050Y-84913342D01*
X94135646Y-84800304D01*
X94135646Y-84800302D01*
X94135647Y-84800301D01*
X94149173Y-84714896D01*
X94150500Y-84706519D01*
X94150499Y-84093482D01*
X94150499Y-84093481D01*
X94150499Y-84093477D01*
X94150498Y-84093476D01*
X94135647Y-83999700D01*
X94135646Y-83999698D01*
X94135646Y-83999696D01*
X94078050Y-83886658D01*
X93988342Y-83796950D01*
X93960987Y-83783012D01*
X93875301Y-83739352D01*
X93781523Y-83724500D01*
X93318477Y-83724500D01*
X93318476Y-83724501D01*
X93224700Y-83739352D01*
X93224695Y-83739354D01*
X93111657Y-83796950D01*
X93021950Y-83886657D01*
X92964352Y-83999698D01*
X92949500Y-84093475D01*
X92949500Y-84706522D01*
X92949501Y-84706523D01*
X92964352Y-84800299D01*
X92964354Y-84800304D01*
X93021950Y-84913342D01*
X93031048Y-84922440D01*
X93049500Y-84966988D01*
X93049500Y-85361970D01*
X93031048Y-85406518D01*
X93021502Y-85414351D01*
X93015538Y-85418337D01*
X92960149Y-85455347D01*
X92960147Y-85455349D01*
X92915833Y-85521668D01*
X92915832Y-85521669D01*
X92915833Y-85521669D01*
X92904200Y-85580152D01*
X92904200Y-87219848D01*
X92915833Y-87278331D01*
X92960148Y-87344652D01*
X92976999Y-87355911D01*
X93003787Y-87396001D01*
X93004998Y-87408293D01*
X93004998Y-87791705D01*
X92986546Y-87836253D01*
X92977000Y-87844087D01*
X92960149Y-87855346D01*
X92915833Y-87921668D01*
X92915832Y-87921669D01*
X92915833Y-87921669D01*
X92904200Y-87980152D01*
X92904200Y-89619848D01*
X91795800Y-89619848D01*
X91795800Y-87980152D01*
X91784167Y-87921669D01*
X91739852Y-87855348D01*
X91673531Y-87811033D01*
X91673530Y-87811032D01*
X91673529Y-87811032D01*
X91651209Y-87806592D01*
X91611117Y-87779803D01*
X91600500Y-87744803D01*
X91600500Y-87455196D01*
X91618952Y-87410648D01*
X91651208Y-87393407D01*
X91673531Y-87388967D01*
X91739852Y-87344652D01*
X91784167Y-87278331D01*
X91795800Y-87219848D01*
X91795800Y-85580152D01*
X91784167Y-85521669D01*
X91739852Y-85455348D01*
X91673531Y-85411033D01*
X91615048Y-85399400D01*
X90584952Y-85399400D01*
X90541089Y-85408124D01*
X90526468Y-85411033D01*
X90460149Y-85455347D01*
X90460147Y-85455349D01*
X90415833Y-85521668D01*
X90415832Y-85521669D01*
X90415833Y-85521669D01*
X90404200Y-85580152D01*
X90404200Y-87219848D01*
X90415833Y-87278331D01*
X90460148Y-87344652D01*
X90526469Y-87388967D01*
X90548790Y-87393407D01*
X90588882Y-87420194D01*
X90599500Y-87455196D01*
X90599500Y-87744803D01*
X90581048Y-87789351D01*
X90548791Y-87806592D01*
X90526470Y-87811032D01*
X90460149Y-87855347D01*
X90460147Y-87855349D01*
X90415833Y-87921668D01*
X90415832Y-87921669D01*
X90415833Y-87921669D01*
X90404200Y-87980152D01*
X90404200Y-87980155D01*
X90404200Y-88832601D01*
X90385748Y-88877149D01*
X89681749Y-89581148D01*
X89637201Y-89599600D01*
X89358800Y-89599600D01*
X89314252Y-89581148D01*
X89295800Y-89536600D01*
X89295800Y-87980155D01*
X89295800Y-87980152D01*
X89284167Y-87921669D01*
X89239852Y-87855348D01*
X89239850Y-87855347D01*
X89239850Y-87855346D01*
X89223000Y-87844087D01*
X89196212Y-87803994D01*
X89195002Y-87791705D01*
X89195002Y-87408293D01*
X89213454Y-87363745D01*
X89222996Y-87355914D01*
X89239852Y-87344652D01*
X89284167Y-87278331D01*
X89295800Y-87219848D01*
X89295800Y-85580152D01*
X89284167Y-85521669D01*
X89239852Y-85455348D01*
X89173531Y-85411033D01*
X89173530Y-85411032D01*
X89173529Y-85411032D01*
X89151209Y-85406592D01*
X89111117Y-85379803D01*
X89100500Y-85344803D01*
X89100500Y-84966988D01*
X89118952Y-84922440D01*
X89128050Y-84913342D01*
X89185646Y-84800304D01*
X89185646Y-84800302D01*
X89185647Y-84800301D01*
X89199173Y-84714896D01*
X89200500Y-84706519D01*
X89200499Y-84093482D01*
X89200499Y-84093481D01*
X89200499Y-84093477D01*
X89200498Y-84093476D01*
X89185647Y-83999700D01*
X89185646Y-83999698D01*
X89185646Y-83999696D01*
X89128050Y-83886658D01*
X89038342Y-83796950D01*
X89010987Y-83783012D01*
X88925301Y-83739352D01*
X88831523Y-83724500D01*
X88368477Y-83724500D01*
X88368476Y-83724501D01*
X88274700Y-83739352D01*
X88274695Y-83739354D01*
X88161657Y-83796950D01*
X88071950Y-83886657D01*
X88014352Y-83999698D01*
X87999500Y-84093475D01*
X87999500Y-84706522D01*
X87999501Y-84706523D01*
X88014352Y-84800299D01*
X88014354Y-84800304D01*
X88071950Y-84913342D01*
X88081048Y-84922440D01*
X88099500Y-84966988D01*
X88099500Y-85344803D01*
X88081048Y-85389351D01*
X88048791Y-85406592D01*
X88026470Y-85411032D01*
X87960149Y-85455347D01*
X87960147Y-85455349D01*
X87915833Y-85521668D01*
X87915832Y-85521669D01*
X87915833Y-85521669D01*
X87904200Y-85580152D01*
X87904200Y-85580155D01*
X87904200Y-86853577D01*
X87885748Y-86898125D01*
X87841200Y-86916577D01*
X87833611Y-86916118D01*
X87742045Y-86905000D01*
X87657959Y-86905000D01*
X87574290Y-86915159D01*
X87532454Y-86920239D01*
X87374646Y-86980087D01*
X87374646Y-86980088D01*
X87235748Y-87075963D01*
X87235746Y-87075965D01*
X87123826Y-87202296D01*
X87045391Y-87351740D01*
X87005002Y-87515611D01*
X87005002Y-87684388D01*
X87045391Y-87848259D01*
X87045391Y-87848260D01*
X87045392Y-87848261D01*
X87123827Y-87997705D01*
X87235747Y-88124036D01*
X87374646Y-88219911D01*
X87374646Y-88219912D01*
X87471059Y-88256476D01*
X87532456Y-88279761D01*
X87657959Y-88295000D01*
X87657963Y-88295000D01*
X87742041Y-88295000D01*
X87742045Y-88295000D01*
X87833609Y-88283881D01*
X87880053Y-88296829D01*
X87903741Y-88338828D01*
X87904200Y-88346422D01*
X87904200Y-89536600D01*
X87885748Y-89581148D01*
X87841200Y-89599600D01*
X72112799Y-89599600D01*
X72068251Y-89581148D01*
X67217252Y-84730149D01*
X67198800Y-84685601D01*
X67201512Y-84667317D01*
X67235300Y-84555934D01*
X67255583Y-84350000D01*
X67255583Y-84349999D01*
X67684417Y-84349999D01*
X67704700Y-84555936D01*
X67704702Y-84555942D01*
X67764766Y-84753952D01*
X67764767Y-84753954D01*
X67862312Y-84936446D01*
X67862314Y-84936449D01*
X67862315Y-84936450D01*
X67993590Y-85096410D01*
X68153550Y-85227685D01*
X68153551Y-85227685D01*
X68153553Y-85227687D01*
X68336045Y-85325232D01*
X68336047Y-85325233D01*
X68457156Y-85361970D01*
X68534066Y-85385300D01*
X68740000Y-85405583D01*
X68945934Y-85385300D01*
X69063378Y-85349674D01*
X69143952Y-85325233D01*
X69143954Y-85325232D01*
X69231886Y-85278231D01*
X69326450Y-85227685D01*
X69486410Y-85096410D01*
X69617685Y-84936450D01*
X69715232Y-84753954D01*
X69716054Y-84751246D01*
X69773721Y-84561138D01*
X69775300Y-84555934D01*
X69795583Y-84350000D01*
X69795583Y-84349999D01*
X70224417Y-84349999D01*
X70244700Y-84555936D01*
X70244702Y-84555942D01*
X70304766Y-84753952D01*
X70304767Y-84753954D01*
X70402312Y-84936446D01*
X70402314Y-84936449D01*
X70402315Y-84936450D01*
X70533590Y-85096410D01*
X70693550Y-85227685D01*
X70693551Y-85227685D01*
X70693553Y-85227687D01*
X70876045Y-85325232D01*
X70876047Y-85325233D01*
X70997156Y-85361970D01*
X71074066Y-85385300D01*
X71280000Y-85405583D01*
X71485934Y-85385300D01*
X71603378Y-85349674D01*
X71683952Y-85325233D01*
X71683954Y-85325232D01*
X71771886Y-85278231D01*
X71866450Y-85227685D01*
X72026410Y-85096410D01*
X72157685Y-84936450D01*
X72255232Y-84753954D01*
X72256054Y-84751246D01*
X72313721Y-84561138D01*
X72315300Y-84555934D01*
X72335583Y-84350000D01*
X72335583Y-84349999D01*
X72764417Y-84349999D01*
X72784700Y-84555936D01*
X72784702Y-84555942D01*
X72844766Y-84753952D01*
X72844767Y-84753954D01*
X72942312Y-84936446D01*
X72942314Y-84936449D01*
X72942315Y-84936450D01*
X73073590Y-85096410D01*
X73233550Y-85227685D01*
X73233551Y-85227685D01*
X73233553Y-85227687D01*
X73416045Y-85325232D01*
X73416047Y-85325233D01*
X73537156Y-85361970D01*
X73614066Y-85385300D01*
X73820000Y-85405583D01*
X74025934Y-85385300D01*
X74143378Y-85349674D01*
X74223952Y-85325233D01*
X74223954Y-85325232D01*
X74311886Y-85278231D01*
X74406450Y-85227685D01*
X74566410Y-85096410D01*
X74697685Y-84936450D01*
X74795232Y-84753954D01*
X74796054Y-84751246D01*
X74853721Y-84561138D01*
X74855300Y-84555934D01*
X74875583Y-84350000D01*
X75304417Y-84350000D01*
X75324700Y-84555936D01*
X75324702Y-84555942D01*
X75384766Y-84753952D01*
X75384767Y-84753954D01*
X75482312Y-84936446D01*
X75482314Y-84936449D01*
X75482315Y-84936450D01*
X75613590Y-85096410D01*
X75773550Y-85227685D01*
X75773551Y-85227685D01*
X75773553Y-85227687D01*
X75956045Y-85325232D01*
X75956047Y-85325233D01*
X76077156Y-85361970D01*
X76154066Y-85385300D01*
X76360000Y-85405583D01*
X76565934Y-85385300D01*
X76683378Y-85349674D01*
X76763952Y-85325233D01*
X76763954Y-85325232D01*
X76851886Y-85278231D01*
X76946450Y-85227685D01*
X77106410Y-85096410D01*
X77237685Y-84936450D01*
X77335232Y-84753954D01*
X77336054Y-84751246D01*
X77393721Y-84561138D01*
X77395300Y-84555934D01*
X77415583Y-84350000D01*
X77415583Y-84349999D01*
X77844417Y-84349999D01*
X77864700Y-84555936D01*
X77864702Y-84555942D01*
X77924766Y-84753952D01*
X77924767Y-84753954D01*
X78022312Y-84936446D01*
X78022314Y-84936449D01*
X78022315Y-84936450D01*
X78153590Y-85096410D01*
X78313550Y-85227685D01*
X78313551Y-85227685D01*
X78313553Y-85227687D01*
X78496045Y-85325232D01*
X78496047Y-85325233D01*
X78617156Y-85361970D01*
X78694066Y-85385300D01*
X78900000Y-85405583D01*
X79105934Y-85385300D01*
X79223378Y-85349674D01*
X79303952Y-85325233D01*
X79303954Y-85325232D01*
X79391886Y-85278231D01*
X79486450Y-85227685D01*
X79646410Y-85096410D01*
X79777685Y-84936450D01*
X79875232Y-84753954D01*
X79876054Y-84751246D01*
X79933721Y-84561138D01*
X79935300Y-84555934D01*
X79942976Y-84478000D01*
X80341122Y-84478000D01*
X80348172Y-84554091D01*
X80348172Y-84554093D01*
X80404268Y-84751246D01*
X80495629Y-84934723D01*
X80495634Y-84934731D01*
X80619151Y-85098294D01*
X80619158Y-85098301D01*
X80770629Y-85236386D01*
X80770628Y-85236386D01*
X80944902Y-85344292D01*
X81136028Y-85418334D01*
X81136039Y-85418337D01*
X81311999Y-85451230D01*
X81312000Y-85451230D01*
X81312000Y-84909444D01*
X81330452Y-84864896D01*
X81375000Y-84846444D01*
X81383958Y-84847084D01*
X81404237Y-84850000D01*
X81404243Y-84850000D01*
X81475757Y-84850000D01*
X81475763Y-84850000D01*
X81496034Y-84847085D01*
X81542754Y-84859009D01*
X81567359Y-84900477D01*
X81568000Y-84909444D01*
X81568000Y-85451230D01*
X81743960Y-85418337D01*
X81743971Y-85418334D01*
X81935097Y-85344292D01*
X82109370Y-85236386D01*
X82260841Y-85098301D01*
X82260848Y-85098294D01*
X82384365Y-84934731D01*
X82384370Y-84934723D01*
X82475731Y-84751246D01*
X82531827Y-84554093D01*
X82531827Y-84554091D01*
X82538878Y-84478000D01*
X82003000Y-84478000D01*
X81958452Y-84459548D01*
X81940000Y-84415000D01*
X81940000Y-84285000D01*
X81958452Y-84240452D01*
X82003000Y-84222000D01*
X82538877Y-84222000D01*
X82538877Y-84221999D01*
X82531827Y-84145908D01*
X82531827Y-84145906D01*
X82475731Y-83948753D01*
X82384370Y-83765276D01*
X82384365Y-83765268D01*
X82260848Y-83601705D01*
X82260841Y-83601698D01*
X82109370Y-83463613D01*
X82109371Y-83463613D01*
X81935097Y-83355707D01*
X81743971Y-83281665D01*
X81743961Y-83281662D01*
X81568000Y-83248768D01*
X81568000Y-83790555D01*
X81549548Y-83835103D01*
X81505000Y-83853555D01*
X81496037Y-83852914D01*
X81475764Y-83850000D01*
X81475763Y-83850000D01*
X81404237Y-83850000D01*
X81404236Y-83850000D01*
X81383963Y-83852914D01*
X81337244Y-83840988D01*
X81312641Y-83799518D01*
X81312000Y-83790555D01*
X81312000Y-83248768D01*
X81136038Y-83281662D01*
X81136028Y-83281665D01*
X80944902Y-83355707D01*
X80770629Y-83463613D01*
X80619158Y-83601698D01*
X80619151Y-83601705D01*
X80495634Y-83765268D01*
X80495629Y-83765276D01*
X80404268Y-83948753D01*
X80348172Y-84145906D01*
X80348172Y-84145908D01*
X80341122Y-84221999D01*
X80341123Y-84222000D01*
X80877000Y-84222000D01*
X80921548Y-84240452D01*
X80940000Y-84285000D01*
X80940000Y-84415000D01*
X80921548Y-84459548D01*
X80877000Y-84478000D01*
X80341122Y-84478000D01*
X79942976Y-84478000D01*
X79955583Y-84350000D01*
X79935300Y-84144066D01*
X79913439Y-84071999D01*
X79875233Y-83946047D01*
X79875232Y-83946045D01*
X79777687Y-83763553D01*
X79777685Y-83763550D01*
X79646410Y-83603590D01*
X79486450Y-83472315D01*
X79486449Y-83472314D01*
X79486446Y-83472312D01*
X79303954Y-83374767D01*
X79303952Y-83374766D01*
X79105942Y-83314702D01*
X79105936Y-83314700D01*
X78951608Y-83299500D01*
X78900000Y-83294417D01*
X78899999Y-83294417D01*
X78694063Y-83314700D01*
X78694057Y-83314702D01*
X78496047Y-83374766D01*
X78496045Y-83374767D01*
X78313553Y-83472312D01*
X78153590Y-83603590D01*
X78022312Y-83763553D01*
X77924767Y-83946045D01*
X77924766Y-83946047D01*
X77864702Y-84144057D01*
X77864700Y-84144063D01*
X77844417Y-84349999D01*
X77415583Y-84349999D01*
X77395300Y-84144066D01*
X77373439Y-84071999D01*
X77335233Y-83946047D01*
X77335232Y-83946045D01*
X77237687Y-83763553D01*
X77237685Y-83763550D01*
X77106410Y-83603590D01*
X76946450Y-83472315D01*
X76946449Y-83472314D01*
X76946446Y-83472312D01*
X76763954Y-83374767D01*
X76763952Y-83374766D01*
X76565942Y-83314702D01*
X76565936Y-83314700D01*
X76360000Y-83294417D01*
X76154063Y-83314700D01*
X76154057Y-83314702D01*
X75956047Y-83374766D01*
X75956045Y-83374767D01*
X75773553Y-83472312D01*
X75613590Y-83603590D01*
X75482312Y-83763553D01*
X75384767Y-83946045D01*
X75384766Y-83946047D01*
X75324702Y-84144057D01*
X75324700Y-84144063D01*
X75304417Y-84350000D01*
X74875583Y-84350000D01*
X74855300Y-84144066D01*
X74833439Y-84071999D01*
X74795233Y-83946047D01*
X74795232Y-83946045D01*
X74697687Y-83763553D01*
X74697685Y-83763550D01*
X74566410Y-83603590D01*
X74406450Y-83472315D01*
X74406449Y-83472314D01*
X74406446Y-83472312D01*
X74223954Y-83374767D01*
X74223952Y-83374766D01*
X74025942Y-83314702D01*
X74025936Y-83314700D01*
X73820000Y-83294417D01*
X73614063Y-83314700D01*
X73614057Y-83314702D01*
X73416047Y-83374766D01*
X73416045Y-83374767D01*
X73233553Y-83472312D01*
X73073590Y-83603590D01*
X72942312Y-83763553D01*
X72844767Y-83946045D01*
X72844766Y-83946047D01*
X72784702Y-84144057D01*
X72784700Y-84144063D01*
X72764417Y-84349999D01*
X72335583Y-84349999D01*
X72315300Y-84144066D01*
X72293439Y-84071999D01*
X72255233Y-83946047D01*
X72255232Y-83946045D01*
X72157687Y-83763553D01*
X72157685Y-83763550D01*
X72026410Y-83603590D01*
X71866450Y-83472315D01*
X71866449Y-83472314D01*
X71866446Y-83472312D01*
X71683954Y-83374767D01*
X71683952Y-83374766D01*
X71485942Y-83314702D01*
X71485936Y-83314700D01*
X71280000Y-83294417D01*
X71074063Y-83314700D01*
X71074057Y-83314702D01*
X70876047Y-83374766D01*
X70876045Y-83374767D01*
X70693553Y-83472312D01*
X70533590Y-83603590D01*
X70402312Y-83763553D01*
X70304767Y-83946045D01*
X70304766Y-83946047D01*
X70244702Y-84144057D01*
X70244700Y-84144063D01*
X70224417Y-84349999D01*
X69795583Y-84349999D01*
X69775300Y-84144066D01*
X69753439Y-84071999D01*
X69715233Y-83946047D01*
X69715232Y-83946045D01*
X69617687Y-83763553D01*
X69617685Y-83763550D01*
X69486410Y-83603590D01*
X69326450Y-83472315D01*
X69326449Y-83472314D01*
X69326446Y-83472312D01*
X69143954Y-83374767D01*
X69143952Y-83374766D01*
X68945942Y-83314702D01*
X68945936Y-83314700D01*
X68791608Y-83299500D01*
X68740000Y-83294417D01*
X68739999Y-83294417D01*
X68534063Y-83314700D01*
X68534057Y-83314702D01*
X68336047Y-83374766D01*
X68336045Y-83374767D01*
X68153553Y-83472312D01*
X67993590Y-83603590D01*
X67862312Y-83763553D01*
X67764767Y-83946045D01*
X67764766Y-83946047D01*
X67704702Y-84144057D01*
X67704700Y-84144063D01*
X67684417Y-84349999D01*
X67255583Y-84349999D01*
X67235300Y-84144066D01*
X67213439Y-84071999D01*
X67175233Y-83946047D01*
X67175232Y-83946045D01*
X67077687Y-83763553D01*
X67077685Y-83763550D01*
X66946410Y-83603590D01*
X66786450Y-83472315D01*
X66786449Y-83472314D01*
X66786446Y-83472312D01*
X66603954Y-83374767D01*
X66603952Y-83374766D01*
X66405942Y-83314702D01*
X66405936Y-83314700D01*
X66200000Y-83294417D01*
X65994063Y-83314700D01*
X65994057Y-83314702D01*
X65796047Y-83374766D01*
X65796045Y-83374767D01*
X65613553Y-83472312D01*
X65453590Y-83603590D01*
X65322312Y-83763553D01*
X65224767Y-83946045D01*
X65224766Y-83946047D01*
X65164702Y-84144057D01*
X65164700Y-84144063D01*
X65144417Y-84350000D01*
X64710500Y-84350000D01*
X64710500Y-83480252D01*
X64698867Y-83421769D01*
X64654552Y-83355448D01*
X64588231Y-83311133D01*
X64529748Y-83299500D01*
X62790252Y-83299500D01*
X62746389Y-83308224D01*
X62731768Y-83311133D01*
X62665449Y-83355447D01*
X62665447Y-83355449D01*
X62621133Y-83421768D01*
X62609499Y-83480255D01*
X62609499Y-85219744D01*
X61514714Y-85219744D01*
X61514714Y-77515243D01*
X61514780Y-77513200D01*
X61520196Y-77430555D01*
X61521959Y-77405908D01*
X61533333Y-77246859D01*
X61533854Y-77242989D01*
X61557364Y-77124791D01*
X61560928Y-77108410D01*
X61589112Y-76978848D01*
X61590049Y-76975469D01*
X61631023Y-76854765D01*
X61680918Y-76720992D01*
X61682151Y-76718135D01*
X61739793Y-76601248D01*
X61807045Y-76478085D01*
X61808471Y-76475729D01*
X61881217Y-76366858D01*
X61882142Y-76365549D01*
X61965204Y-76254592D01*
X61966684Y-76252766D01*
X62053357Y-76153934D01*
X62054712Y-76152487D01*
X62152487Y-76054712D01*
X62153934Y-76053357D01*
X62252766Y-75966684D01*
X62254592Y-75965204D01*
X62365549Y-75882142D01*
X62366858Y-75881217D01*
X62475729Y-75808471D01*
X62478085Y-75807045D01*
X62601248Y-75739793D01*
X62718135Y-75682151D01*
X62720992Y-75680918D01*
X62854765Y-75631023D01*
X62975469Y-75590049D01*
X62978848Y-75589112D01*
X63124770Y-75557368D01*
X63242989Y-75533854D01*
X63246859Y-75533333D01*
X63430484Y-75520201D01*
X63513200Y-75514780D01*
X63515243Y-75514714D01*
X66000375Y-75514714D01*
X66044923Y-75533166D01*
G37*
%TD.AperFunction*%
%TD*%
M02*
