%TF.GenerationSoftware,KiCad,Pcbnew,7.0.7*%
%TF.CreationDate,2023-12-21T12:45:23+01:00*%
%TF.ProjectId,IR range extender v0r1,49522072-616e-4676-9520-657874656e64,rev?*%
%TF.SameCoordinates,Original*%
%TF.FileFunction,Copper,L3,Inr*%
%TF.FilePolarity,Positive*%
%FSLAX46Y46*%
G04 Gerber Fmt 4.6, Leading zero omitted, Abs format (unit mm)*
G04 Created by KiCad (PCBNEW 7.0.7) date 2023-12-21 12:45:23*
%MOMM*%
%LPD*%
G01*
G04 APERTURE LIST*
%TA.AperFunction,ComponentPad*%
%ADD10R,1.700000X1.700000*%
%TD*%
%TA.AperFunction,ComponentPad*%
%ADD11O,1.700000X1.700000*%
%TD*%
%TA.AperFunction,ViaPad*%
%ADD12C,0.800000*%
%TD*%
G04 APERTURE END LIST*
D10*
%TO.N,unconnected-(J2-Pin_1-Pad1)*%
%TO.C,J2*%
X63660000Y-84350000D03*
D11*
%TO.N,A7*%
X66200000Y-84350000D03*
%TO.N,unconnected-(J2-Pin_3-Pad3)*%
X68740000Y-84350000D03*
%TO.N,unconnected-(J2-Pin_4-Pad4)*%
X71280000Y-84350000D03*
%TO.N,unconnected-(J2-Pin_5-Pad5)*%
X73820000Y-84350000D03*
%TO.N,unconnected-(J2-Pin_6-Pad6)*%
X76360000Y-84350000D03*
%TO.N,unconnected-(J2-Pin_7-Pad7)*%
X78900000Y-84350000D03*
%TO.N,GND*%
X81440000Y-84350000D03*
%TD*%
D10*
%TO.N,+3.3V*%
%TO.C,J1*%
X99060000Y-84200000D03*
D11*
%TO.N,unconnected-(J1-Pin_2-Pad2)*%
X101600000Y-84200000D03*
%TO.N,GND*%
X104140000Y-84200000D03*
%TO.N,unconnected-(J1-Pin_4-Pad4)*%
X106680000Y-84200000D03*
%TO.N,unconnected-(J1-Pin_5-Pad5)*%
X109220000Y-84200000D03*
%TO.N,unconnected-(J1-Pin_6-Pad6)*%
X111760000Y-84200000D03*
%TO.N,unconnected-(J1-Pin_7-Pad7)*%
X114300000Y-84200000D03*
%TO.N,unconnected-(J1-Pin_8-Pad8)*%
X116840000Y-84200000D03*
%TO.N,unconnected-(J1-Pin_9-Pad9)*%
X119380000Y-84200000D03*
%TO.N,GND*%
X121920000Y-84200000D03*
%TD*%
D12*
%TO.N,+3.3V*%
X68600000Y-82500000D03*
X106200000Y-88600000D03*
X117000000Y-82500000D03*
%TO.N,Net-(Q2-B)*%
X94400000Y-80300000D03*
X99400000Y-80300000D03*
%TD*%
%TA.AperFunction,Conductor*%
%TO.N,+3.3V*%
G36*
X121986799Y-75514780D02*
G01*
X122069468Y-75520198D01*
X122253136Y-75533333D01*
X122257014Y-75533854D01*
X122375239Y-75557370D01*
X122521142Y-75589110D01*
X122524539Y-75590052D01*
X122645215Y-75631016D01*
X122778992Y-75680912D01*
X122781878Y-75682158D01*
X122898739Y-75739787D01*
X123021904Y-75807040D01*
X123024289Y-75808484D01*
X123082361Y-75847286D01*
X123133113Y-75881198D01*
X123134484Y-75882168D01*
X123245381Y-75965184D01*
X123247264Y-75966711D01*
X123346037Y-76053333D01*
X123347542Y-76054742D01*
X123445256Y-76152456D01*
X123446665Y-76153961D01*
X123533287Y-76252734D01*
X123534822Y-76254627D01*
X123617826Y-76365508D01*
X123618800Y-76366885D01*
X123691508Y-76475699D01*
X123692964Y-76478104D01*
X123760213Y-76601261D01*
X123817830Y-76718097D01*
X123819093Y-76721023D01*
X123868985Y-76854789D01*
X123909942Y-76975448D01*
X123910895Y-76978881D01*
X123942637Y-77124803D01*
X123966141Y-77242968D01*
X123966666Y-77246870D01*
X123979804Y-77430578D01*
X123983076Y-77480496D01*
X123985219Y-77513200D01*
X123985286Y-77515244D01*
X123985286Y-89984755D01*
X123985219Y-89986800D01*
X123983323Y-90015725D01*
X123979804Y-90069421D01*
X123966666Y-90253128D01*
X123966141Y-90257029D01*
X123942637Y-90375196D01*
X123910895Y-90521117D01*
X123909942Y-90524549D01*
X123868985Y-90645210D01*
X123819093Y-90778975D01*
X123817830Y-90781901D01*
X123760213Y-90898738D01*
X123692964Y-91021894D01*
X123691508Y-91024299D01*
X123618800Y-91133113D01*
X123617826Y-91134490D01*
X123534822Y-91245371D01*
X123533287Y-91247264D01*
X123446665Y-91346037D01*
X123445256Y-91347542D01*
X123347542Y-91445256D01*
X123346037Y-91446665D01*
X123247264Y-91533287D01*
X123245371Y-91534822D01*
X123134490Y-91617826D01*
X123133113Y-91618800D01*
X123024299Y-91691508D01*
X123021894Y-91692964D01*
X122898738Y-91760213D01*
X122781901Y-91817830D01*
X122778975Y-91819093D01*
X122645210Y-91868985D01*
X122524549Y-91909942D01*
X122521117Y-91910895D01*
X122375196Y-91942637D01*
X122257029Y-91966141D01*
X122253128Y-91966666D01*
X122069421Y-91979804D01*
X122018073Y-91983170D01*
X121986799Y-91985219D01*
X121984756Y-91985286D01*
X63515244Y-91985286D01*
X63513200Y-91985219D01*
X63480496Y-91983076D01*
X63430578Y-91979804D01*
X63246870Y-91966666D01*
X63242968Y-91966141D01*
X63124803Y-91942637D01*
X62978881Y-91910895D01*
X62975448Y-91909942D01*
X62854789Y-91868985D01*
X62721023Y-91819093D01*
X62718102Y-91817832D01*
X62601257Y-91760210D01*
X62478104Y-91692964D01*
X62475699Y-91691508D01*
X62366885Y-91618800D01*
X62365508Y-91617826D01*
X62254627Y-91534822D01*
X62252734Y-91533287D01*
X62153961Y-91446665D01*
X62152456Y-91445256D01*
X62054742Y-91347542D01*
X62053333Y-91346037D01*
X61966711Y-91247264D01*
X61965184Y-91245381D01*
X61882168Y-91134484D01*
X61881198Y-91133113D01*
X61856338Y-91095907D01*
X61808484Y-91024289D01*
X61807040Y-91021904D01*
X61739787Y-90898738D01*
X61682158Y-90781878D01*
X61680912Y-90778992D01*
X61631015Y-90645210D01*
X61590052Y-90524539D01*
X61589110Y-90521142D01*
X61557370Y-90375239D01*
X61533854Y-90257014D01*
X61533333Y-90253136D01*
X61520194Y-90069410D01*
X61514780Y-89986800D01*
X61514714Y-89984756D01*
X61514714Y-87684388D01*
X87005002Y-87684388D01*
X87045391Y-87848259D01*
X87045391Y-87848260D01*
X87045392Y-87848261D01*
X87123827Y-87997705D01*
X87235747Y-88124036D01*
X87374646Y-88219911D01*
X87374646Y-88219912D01*
X87471059Y-88256476D01*
X87532456Y-88279761D01*
X87657959Y-88295000D01*
X87657963Y-88295000D01*
X87742041Y-88295000D01*
X87742045Y-88295000D01*
X87867548Y-88279761D01*
X88025357Y-88219912D01*
X88164257Y-88124036D01*
X88276177Y-87997705D01*
X88354612Y-87848261D01*
X88395002Y-87684388D01*
X93804998Y-87684388D01*
X93845387Y-87848259D01*
X93845387Y-87848260D01*
X93845388Y-87848261D01*
X93923823Y-87997705D01*
X94035743Y-88124036D01*
X94174642Y-88219911D01*
X94174642Y-88219912D01*
X94271055Y-88256476D01*
X94332452Y-88279761D01*
X94457955Y-88295000D01*
X94457959Y-88295000D01*
X94542037Y-88295000D01*
X94542041Y-88295000D01*
X94667544Y-88279761D01*
X94825353Y-88219912D01*
X94964253Y-88124036D01*
X95076173Y-87997705D01*
X95154608Y-87848261D01*
X95194998Y-87684388D01*
X95194998Y-87515612D01*
X95154608Y-87351739D01*
X95076173Y-87202295D01*
X94964253Y-87075964D01*
X94825353Y-86980088D01*
X94825353Y-86980087D01*
X94667545Y-86920239D01*
X94642443Y-86917191D01*
X94542041Y-86905000D01*
X94457955Y-86905000D01*
X94374286Y-86915159D01*
X94332450Y-86920239D01*
X94174642Y-86980087D01*
X94174642Y-86980088D01*
X94035744Y-87075963D01*
X94035742Y-87075965D01*
X93923822Y-87202296D01*
X93845387Y-87351740D01*
X93804998Y-87515611D01*
X93804998Y-87684388D01*
X88395002Y-87684388D01*
X88395002Y-87515612D01*
X88354612Y-87351739D01*
X88276177Y-87202295D01*
X88164257Y-87075964D01*
X88025357Y-86980088D01*
X88025357Y-86980087D01*
X87867549Y-86920239D01*
X87842447Y-86917191D01*
X87742045Y-86905000D01*
X87657959Y-86905000D01*
X87574290Y-86915159D01*
X87532454Y-86920239D01*
X87374646Y-86980087D01*
X87374646Y-86980088D01*
X87235748Y-87075963D01*
X87235746Y-87075965D01*
X87123826Y-87202296D01*
X87045391Y-87351740D01*
X87005002Y-87515611D01*
X87005002Y-87684388D01*
X61514714Y-87684388D01*
X61514714Y-85219744D01*
X62609499Y-85219744D01*
X62609500Y-85219748D01*
X62621133Y-85278231D01*
X62665448Y-85344552D01*
X62731769Y-85388867D01*
X62790252Y-85400500D01*
X62790255Y-85400500D01*
X64529745Y-85400500D01*
X64529748Y-85400500D01*
X64588231Y-85388867D01*
X64654552Y-85344552D01*
X64698867Y-85278231D01*
X64710500Y-85219748D01*
X64710500Y-84350000D01*
X65144417Y-84350000D01*
X65164700Y-84555936D01*
X65164702Y-84555942D01*
X65224766Y-84753952D01*
X65224767Y-84753954D01*
X65322312Y-84936446D01*
X65322314Y-84936449D01*
X65322315Y-84936450D01*
X65453590Y-85096410D01*
X65613550Y-85227685D01*
X65613551Y-85227685D01*
X65613553Y-85227687D01*
X65796045Y-85325232D01*
X65796047Y-85325233D01*
X65938763Y-85368524D01*
X65994066Y-85385300D01*
X66200000Y-85405583D01*
X66405934Y-85385300D01*
X66540264Y-85344552D01*
X66603952Y-85325233D01*
X66603954Y-85325232D01*
X66786446Y-85227687D01*
X66786445Y-85227687D01*
X66786450Y-85227685D01*
X66946410Y-85096410D01*
X67077685Y-84936450D01*
X67175232Y-84753954D01*
X67235300Y-84555934D01*
X67255583Y-84350000D01*
X67255583Y-84349999D01*
X67684417Y-84349999D01*
X67704700Y-84555936D01*
X67704702Y-84555942D01*
X67764766Y-84753952D01*
X67764767Y-84753954D01*
X67862312Y-84936446D01*
X67862314Y-84936449D01*
X67862315Y-84936450D01*
X67993590Y-85096410D01*
X68153550Y-85227685D01*
X68153551Y-85227685D01*
X68153553Y-85227687D01*
X68336045Y-85325232D01*
X68336047Y-85325233D01*
X68478763Y-85368524D01*
X68534066Y-85385300D01*
X68740000Y-85405583D01*
X68945934Y-85385300D01*
X69080264Y-85344552D01*
X69143952Y-85325233D01*
X69143954Y-85325232D01*
X69326446Y-85227687D01*
X69326445Y-85227687D01*
X69326450Y-85227685D01*
X69486410Y-85096410D01*
X69617685Y-84936450D01*
X69715232Y-84753954D01*
X69775300Y-84555934D01*
X69795583Y-84350000D01*
X69795583Y-84349999D01*
X70224417Y-84349999D01*
X70244700Y-84555936D01*
X70244702Y-84555942D01*
X70304766Y-84753952D01*
X70304767Y-84753954D01*
X70402312Y-84936446D01*
X70402314Y-84936449D01*
X70402315Y-84936450D01*
X70533590Y-85096410D01*
X70693550Y-85227685D01*
X70693551Y-85227685D01*
X70693553Y-85227687D01*
X70876045Y-85325232D01*
X70876047Y-85325233D01*
X71018763Y-85368524D01*
X71074066Y-85385300D01*
X71280000Y-85405583D01*
X71485934Y-85385300D01*
X71620264Y-85344552D01*
X71683952Y-85325233D01*
X71683954Y-85325232D01*
X71866446Y-85227687D01*
X71866445Y-85227687D01*
X71866450Y-85227685D01*
X72026410Y-85096410D01*
X72157685Y-84936450D01*
X72255232Y-84753954D01*
X72315300Y-84555934D01*
X72335583Y-84350000D01*
X72335583Y-84349999D01*
X72764417Y-84349999D01*
X72784700Y-84555936D01*
X72784702Y-84555942D01*
X72844766Y-84753952D01*
X72844767Y-84753954D01*
X72942312Y-84936446D01*
X72942314Y-84936449D01*
X72942315Y-84936450D01*
X73073590Y-85096410D01*
X73233550Y-85227685D01*
X73233551Y-85227685D01*
X73233553Y-85227687D01*
X73416045Y-85325232D01*
X73416047Y-85325233D01*
X73558763Y-85368524D01*
X73614066Y-85385300D01*
X73820000Y-85405583D01*
X74025934Y-85385300D01*
X74160264Y-85344552D01*
X74223952Y-85325233D01*
X74223954Y-85325232D01*
X74406446Y-85227687D01*
X74406445Y-85227687D01*
X74406450Y-85227685D01*
X74566410Y-85096410D01*
X74697685Y-84936450D01*
X74795232Y-84753954D01*
X74855300Y-84555934D01*
X74875583Y-84350000D01*
X75304417Y-84350000D01*
X75324700Y-84555936D01*
X75324702Y-84555942D01*
X75384766Y-84753952D01*
X75384767Y-84753954D01*
X75482312Y-84936446D01*
X75482314Y-84936449D01*
X75482315Y-84936450D01*
X75613590Y-85096410D01*
X75773550Y-85227685D01*
X75773551Y-85227685D01*
X75773553Y-85227687D01*
X75956045Y-85325232D01*
X75956047Y-85325233D01*
X76098763Y-85368524D01*
X76154066Y-85385300D01*
X76360000Y-85405583D01*
X76565934Y-85385300D01*
X76700264Y-85344552D01*
X76763952Y-85325233D01*
X76763954Y-85325232D01*
X76946446Y-85227687D01*
X76946445Y-85227687D01*
X76946450Y-85227685D01*
X77106410Y-85096410D01*
X77237685Y-84936450D01*
X77335232Y-84753954D01*
X77395300Y-84555934D01*
X77415583Y-84350000D01*
X77415583Y-84349999D01*
X77844417Y-84349999D01*
X77864700Y-84555936D01*
X77864702Y-84555942D01*
X77924766Y-84753952D01*
X77924767Y-84753954D01*
X78022312Y-84936446D01*
X78022314Y-84936449D01*
X78022315Y-84936450D01*
X78153590Y-85096410D01*
X78313550Y-85227685D01*
X78313551Y-85227685D01*
X78313553Y-85227687D01*
X78496045Y-85325232D01*
X78496047Y-85325233D01*
X78638763Y-85368524D01*
X78694066Y-85385300D01*
X78900000Y-85405583D01*
X79105934Y-85385300D01*
X79240264Y-85344552D01*
X79303952Y-85325233D01*
X79303954Y-85325232D01*
X79486446Y-85227687D01*
X79486445Y-85227687D01*
X79486450Y-85227685D01*
X79646410Y-85096410D01*
X79777685Y-84936450D01*
X79875232Y-84753954D01*
X79935300Y-84555934D01*
X79955583Y-84350000D01*
X79955583Y-84349999D01*
X80384417Y-84349999D01*
X80404700Y-84555936D01*
X80404702Y-84555942D01*
X80464766Y-84753952D01*
X80464767Y-84753954D01*
X80562312Y-84936446D01*
X80562314Y-84936449D01*
X80562315Y-84936450D01*
X80693590Y-85096410D01*
X80853550Y-85227685D01*
X80853551Y-85227685D01*
X80853553Y-85227687D01*
X81036045Y-85325232D01*
X81036047Y-85325233D01*
X81178763Y-85368524D01*
X81234066Y-85385300D01*
X81440000Y-85405583D01*
X81645934Y-85385300D01*
X81780264Y-85344552D01*
X81843952Y-85325233D01*
X81843954Y-85325232D01*
X82026446Y-85227687D01*
X82026445Y-85227687D01*
X82026450Y-85227685D01*
X82186410Y-85096410D01*
X82203807Y-85075212D01*
X97954000Y-85075212D01*
X97968853Y-85149886D01*
X98025432Y-85234561D01*
X98025438Y-85234567D01*
X98110113Y-85291146D01*
X98184787Y-85306000D01*
X98931999Y-85306000D01*
X98932000Y-85305999D01*
X98932000Y-84759444D01*
X98950452Y-84714896D01*
X98995000Y-84696444D01*
X99003958Y-84697084D01*
X99024237Y-84700000D01*
X99024243Y-84700000D01*
X99095757Y-84700000D01*
X99095763Y-84700000D01*
X99116034Y-84697085D01*
X99162754Y-84709009D01*
X99187359Y-84750477D01*
X99188000Y-84759444D01*
X99188000Y-85305999D01*
X99188001Y-85306000D01*
X99935213Y-85306000D01*
X100009886Y-85291146D01*
X100094561Y-85234567D01*
X100094567Y-85234561D01*
X100151146Y-85149886D01*
X100165999Y-85075212D01*
X100165999Y-84328000D01*
X99623000Y-84328000D01*
X99578452Y-84309548D01*
X99560000Y-84265000D01*
X99560000Y-84200000D01*
X100544417Y-84200000D01*
X100564700Y-84405936D01*
X100564702Y-84405942D01*
X100624766Y-84603952D01*
X100624767Y-84603954D01*
X100722312Y-84786446D01*
X100722314Y-84786449D01*
X100722315Y-84786450D01*
X100853590Y-84946410D01*
X101013550Y-85077685D01*
X101013551Y-85077685D01*
X101013553Y-85077687D01*
X101196045Y-85175232D01*
X101196047Y-85175233D01*
X101338763Y-85218524D01*
X101394066Y-85235300D01*
X101600000Y-85255583D01*
X101805934Y-85235300D01*
X101923378Y-85199674D01*
X102003952Y-85175233D01*
X102003954Y-85175232D01*
X102186446Y-85077687D01*
X102186445Y-85077687D01*
X102186450Y-85077685D01*
X102346410Y-84946410D01*
X102477685Y-84786450D01*
X102575232Y-84603954D01*
X102635300Y-84405934D01*
X102655583Y-84200000D01*
X103084417Y-84200000D01*
X103104700Y-84405936D01*
X103104702Y-84405942D01*
X103164766Y-84603952D01*
X103164767Y-84603954D01*
X103262312Y-84786446D01*
X103262314Y-84786449D01*
X103262315Y-84786450D01*
X103393590Y-84946410D01*
X103553550Y-85077685D01*
X103553551Y-85077685D01*
X103553553Y-85077687D01*
X103736045Y-85175232D01*
X103736047Y-85175233D01*
X103878763Y-85218524D01*
X103934066Y-85235300D01*
X104140000Y-85255583D01*
X104345934Y-85235300D01*
X104463378Y-85199674D01*
X104543952Y-85175233D01*
X104543954Y-85175232D01*
X104726446Y-85077687D01*
X104726445Y-85077687D01*
X104726450Y-85077685D01*
X104886410Y-84946410D01*
X105017685Y-84786450D01*
X105115232Y-84603954D01*
X105175300Y-84405934D01*
X105195583Y-84200000D01*
X105624417Y-84200000D01*
X105644700Y-84405936D01*
X105644702Y-84405942D01*
X105704766Y-84603952D01*
X105704767Y-84603954D01*
X105802312Y-84786446D01*
X105802314Y-84786449D01*
X105802315Y-84786450D01*
X105933590Y-84946410D01*
X106093550Y-85077685D01*
X106093551Y-85077685D01*
X106093553Y-85077687D01*
X106276045Y-85175232D01*
X106276047Y-85175233D01*
X106418763Y-85218524D01*
X106474066Y-85235300D01*
X106680000Y-85255583D01*
X106885934Y-85235300D01*
X107003378Y-85199674D01*
X107083952Y-85175233D01*
X107083954Y-85175232D01*
X107266446Y-85077687D01*
X107266445Y-85077687D01*
X107266450Y-85077685D01*
X107426410Y-84946410D01*
X107557685Y-84786450D01*
X107655232Y-84603954D01*
X107715300Y-84405934D01*
X107735583Y-84200000D01*
X107735583Y-84199999D01*
X108164417Y-84199999D01*
X108184700Y-84405936D01*
X108184702Y-84405942D01*
X108244766Y-84603952D01*
X108244767Y-84603954D01*
X108342312Y-84786446D01*
X108342314Y-84786449D01*
X108342315Y-84786450D01*
X108473590Y-84946410D01*
X108633550Y-85077685D01*
X108633551Y-85077685D01*
X108633553Y-85077687D01*
X108816045Y-85175232D01*
X108816047Y-85175233D01*
X108958763Y-85218524D01*
X109014066Y-85235300D01*
X109220000Y-85255583D01*
X109425934Y-85235300D01*
X109543378Y-85199674D01*
X109623952Y-85175233D01*
X109623954Y-85175232D01*
X109806446Y-85077687D01*
X109806445Y-85077687D01*
X109806450Y-85077685D01*
X109966410Y-84946410D01*
X110097685Y-84786450D01*
X110195232Y-84603954D01*
X110255300Y-84405934D01*
X110275583Y-84200000D01*
X110275583Y-84199999D01*
X110704417Y-84199999D01*
X110724700Y-84405936D01*
X110724702Y-84405942D01*
X110784766Y-84603952D01*
X110784767Y-84603954D01*
X110882312Y-84786446D01*
X110882314Y-84786449D01*
X110882315Y-84786450D01*
X111013590Y-84946410D01*
X111173550Y-85077685D01*
X111173551Y-85077685D01*
X111173553Y-85077687D01*
X111356045Y-85175232D01*
X111356047Y-85175233D01*
X111498763Y-85218524D01*
X111554066Y-85235300D01*
X111760000Y-85255583D01*
X111965934Y-85235300D01*
X112083378Y-85199674D01*
X112163952Y-85175233D01*
X112163954Y-85175232D01*
X112346446Y-85077687D01*
X112346445Y-85077687D01*
X112346450Y-85077685D01*
X112506410Y-84946410D01*
X112637685Y-84786450D01*
X112735232Y-84603954D01*
X112795300Y-84405934D01*
X112815583Y-84200000D01*
X112815583Y-84199999D01*
X113244417Y-84199999D01*
X113264700Y-84405936D01*
X113264702Y-84405942D01*
X113324766Y-84603952D01*
X113324767Y-84603954D01*
X113422312Y-84786446D01*
X113422314Y-84786449D01*
X113422315Y-84786450D01*
X113553590Y-84946410D01*
X113713550Y-85077685D01*
X113713551Y-85077685D01*
X113713553Y-85077687D01*
X113896045Y-85175232D01*
X113896047Y-85175233D01*
X114038763Y-85218524D01*
X114094066Y-85235300D01*
X114300000Y-85255583D01*
X114505934Y-85235300D01*
X114623378Y-85199674D01*
X114703952Y-85175233D01*
X114703954Y-85175232D01*
X114886446Y-85077687D01*
X114886445Y-85077687D01*
X114886450Y-85077685D01*
X115046410Y-84946410D01*
X115177685Y-84786450D01*
X115275232Y-84603954D01*
X115335300Y-84405934D01*
X115355583Y-84200000D01*
X115355583Y-84199999D01*
X115784417Y-84199999D01*
X115804700Y-84405936D01*
X115804702Y-84405942D01*
X115864766Y-84603952D01*
X115864767Y-84603954D01*
X115962312Y-84786446D01*
X115962314Y-84786449D01*
X115962315Y-84786450D01*
X116093590Y-84946410D01*
X116253550Y-85077685D01*
X116253551Y-85077685D01*
X116253553Y-85077687D01*
X116436045Y-85175232D01*
X116436047Y-85175233D01*
X116578763Y-85218524D01*
X116634066Y-85235300D01*
X116840000Y-85255583D01*
X117045934Y-85235300D01*
X117163378Y-85199674D01*
X117243952Y-85175233D01*
X117243954Y-85175232D01*
X117426446Y-85077687D01*
X117426445Y-85077687D01*
X117426450Y-85077685D01*
X117586410Y-84946410D01*
X117717685Y-84786450D01*
X117815232Y-84603954D01*
X117875300Y-84405934D01*
X117895583Y-84200000D01*
X118324417Y-84200000D01*
X118344700Y-84405936D01*
X118344702Y-84405942D01*
X118404766Y-84603952D01*
X118404767Y-84603954D01*
X118502312Y-84786446D01*
X118502314Y-84786449D01*
X118502315Y-84786450D01*
X118633590Y-84946410D01*
X118793550Y-85077685D01*
X118793551Y-85077685D01*
X118793553Y-85077687D01*
X118976045Y-85175232D01*
X118976047Y-85175233D01*
X119118763Y-85218524D01*
X119174066Y-85235300D01*
X119380000Y-85255583D01*
X119585934Y-85235300D01*
X119703378Y-85199674D01*
X119783952Y-85175233D01*
X119783954Y-85175232D01*
X119966446Y-85077687D01*
X119966445Y-85077687D01*
X119966450Y-85077685D01*
X120126410Y-84946410D01*
X120257685Y-84786450D01*
X120355232Y-84603954D01*
X120415300Y-84405934D01*
X120435583Y-84200000D01*
X120864417Y-84200000D01*
X120884700Y-84405936D01*
X120884702Y-84405942D01*
X120944766Y-84603952D01*
X120944767Y-84603954D01*
X121042312Y-84786446D01*
X121042314Y-84786449D01*
X121042315Y-84786450D01*
X121173590Y-84946410D01*
X121333550Y-85077685D01*
X121333551Y-85077685D01*
X121333553Y-85077687D01*
X121516045Y-85175232D01*
X121516047Y-85175233D01*
X121658763Y-85218524D01*
X121714066Y-85235300D01*
X121920000Y-85255583D01*
X122125934Y-85235300D01*
X122243378Y-85199674D01*
X122323952Y-85175233D01*
X122323954Y-85175232D01*
X122506446Y-85077687D01*
X122506445Y-85077687D01*
X122506450Y-85077685D01*
X122666410Y-84946410D01*
X122797685Y-84786450D01*
X122895232Y-84603954D01*
X122955300Y-84405934D01*
X122975583Y-84200000D01*
X122955300Y-83994066D01*
X122938524Y-83938763D01*
X122895233Y-83796047D01*
X122895232Y-83796045D01*
X122797687Y-83613553D01*
X122789511Y-83603590D01*
X122666410Y-83453590D01*
X122506450Y-83322315D01*
X122506449Y-83322314D01*
X122506446Y-83322312D01*
X122323954Y-83224767D01*
X122323952Y-83224766D01*
X122125942Y-83164702D01*
X122125936Y-83164700D01*
X121920000Y-83144417D01*
X121714063Y-83164700D01*
X121714057Y-83164702D01*
X121516047Y-83224766D01*
X121516045Y-83224767D01*
X121333553Y-83322312D01*
X121173590Y-83453590D01*
X121042312Y-83613553D01*
X120944767Y-83796045D01*
X120944766Y-83796047D01*
X120884702Y-83994057D01*
X120884700Y-83994063D01*
X120864417Y-84200000D01*
X120435583Y-84200000D01*
X120415300Y-83994066D01*
X120398524Y-83938763D01*
X120355233Y-83796047D01*
X120355232Y-83796045D01*
X120257687Y-83613553D01*
X120249511Y-83603590D01*
X120126410Y-83453590D01*
X119966450Y-83322315D01*
X119966449Y-83322314D01*
X119966446Y-83322312D01*
X119783954Y-83224767D01*
X119783952Y-83224766D01*
X119585942Y-83164702D01*
X119585936Y-83164700D01*
X119448644Y-83151178D01*
X119380000Y-83144417D01*
X119379999Y-83144417D01*
X119174063Y-83164700D01*
X119174057Y-83164702D01*
X118976047Y-83224766D01*
X118976045Y-83224767D01*
X118793553Y-83322312D01*
X118633590Y-83453590D01*
X118502312Y-83613553D01*
X118404767Y-83796045D01*
X118404766Y-83796047D01*
X118344702Y-83994057D01*
X118344700Y-83994063D01*
X118324417Y-84200000D01*
X117895583Y-84200000D01*
X117875300Y-83994066D01*
X117858524Y-83938763D01*
X117815233Y-83796047D01*
X117815232Y-83796045D01*
X117717687Y-83613553D01*
X117709511Y-83603590D01*
X117586410Y-83453590D01*
X117426450Y-83322315D01*
X117426449Y-83322314D01*
X117426446Y-83322312D01*
X117243954Y-83224767D01*
X117243952Y-83224766D01*
X117045942Y-83164702D01*
X117045936Y-83164700D01*
X116840000Y-83144417D01*
X116634063Y-83164700D01*
X116634057Y-83164702D01*
X116436047Y-83224766D01*
X116436045Y-83224767D01*
X116253553Y-83322312D01*
X116093590Y-83453590D01*
X115962312Y-83613553D01*
X115864767Y-83796045D01*
X115864766Y-83796047D01*
X115804702Y-83994057D01*
X115804700Y-83994063D01*
X115784417Y-84199999D01*
X115355583Y-84199999D01*
X115335300Y-83994066D01*
X115318524Y-83938763D01*
X115275233Y-83796047D01*
X115275232Y-83796045D01*
X115177687Y-83613553D01*
X115169511Y-83603590D01*
X115046410Y-83453590D01*
X114886450Y-83322315D01*
X114886449Y-83322314D01*
X114886446Y-83322312D01*
X114703954Y-83224767D01*
X114703952Y-83224766D01*
X114505942Y-83164702D01*
X114505936Y-83164700D01*
X114300000Y-83144417D01*
X114094063Y-83164700D01*
X114094057Y-83164702D01*
X113896047Y-83224766D01*
X113896045Y-83224767D01*
X113713553Y-83322312D01*
X113553590Y-83453590D01*
X113422312Y-83613553D01*
X113324767Y-83796045D01*
X113324766Y-83796047D01*
X113264702Y-83994057D01*
X113264700Y-83994063D01*
X113244417Y-84199999D01*
X112815583Y-84199999D01*
X112795300Y-83994066D01*
X112778524Y-83938763D01*
X112735233Y-83796047D01*
X112735232Y-83796045D01*
X112637687Y-83613553D01*
X112629511Y-83603590D01*
X112506410Y-83453590D01*
X112346450Y-83322315D01*
X112346449Y-83322314D01*
X112346446Y-83322312D01*
X112163954Y-83224767D01*
X112163952Y-83224766D01*
X111965942Y-83164702D01*
X111965936Y-83164700D01*
X111760000Y-83144417D01*
X111554063Y-83164700D01*
X111554057Y-83164702D01*
X111356047Y-83224766D01*
X111356045Y-83224767D01*
X111173553Y-83322312D01*
X111013590Y-83453590D01*
X110882312Y-83613553D01*
X110784767Y-83796045D01*
X110784766Y-83796047D01*
X110724702Y-83994057D01*
X110724700Y-83994063D01*
X110704417Y-84199999D01*
X110275583Y-84199999D01*
X110255300Y-83994066D01*
X110238524Y-83938763D01*
X110195233Y-83796047D01*
X110195232Y-83796045D01*
X110097687Y-83613553D01*
X110089511Y-83603590D01*
X109966410Y-83453590D01*
X109806450Y-83322315D01*
X109806449Y-83322314D01*
X109806446Y-83322312D01*
X109623954Y-83224767D01*
X109623952Y-83224766D01*
X109425942Y-83164702D01*
X109425936Y-83164700D01*
X109288644Y-83151178D01*
X109220000Y-83144417D01*
X109219999Y-83144417D01*
X109014063Y-83164700D01*
X109014057Y-83164702D01*
X108816047Y-83224766D01*
X108816045Y-83224767D01*
X108633553Y-83322312D01*
X108473590Y-83453590D01*
X108342312Y-83613553D01*
X108244767Y-83796045D01*
X108244766Y-83796047D01*
X108184702Y-83994057D01*
X108184700Y-83994063D01*
X108164417Y-84199999D01*
X107735583Y-84199999D01*
X107715300Y-83994066D01*
X107698524Y-83938763D01*
X107655233Y-83796047D01*
X107655232Y-83796045D01*
X107557687Y-83613553D01*
X107549511Y-83603590D01*
X107426410Y-83453590D01*
X107266450Y-83322315D01*
X107266449Y-83322314D01*
X107266446Y-83322312D01*
X107083954Y-83224767D01*
X107083952Y-83224766D01*
X106885942Y-83164702D01*
X106885936Y-83164700D01*
X106680000Y-83144417D01*
X106474063Y-83164700D01*
X106474057Y-83164702D01*
X106276047Y-83224766D01*
X106276045Y-83224767D01*
X106093553Y-83322312D01*
X105933590Y-83453590D01*
X105802312Y-83613553D01*
X105704767Y-83796045D01*
X105704766Y-83796047D01*
X105644702Y-83994057D01*
X105644700Y-83994063D01*
X105624417Y-84200000D01*
X105195583Y-84200000D01*
X105175300Y-83994066D01*
X105158524Y-83938763D01*
X105115233Y-83796047D01*
X105115232Y-83796045D01*
X105017687Y-83613553D01*
X105009511Y-83603590D01*
X104886410Y-83453590D01*
X104726450Y-83322315D01*
X104726449Y-83322314D01*
X104726446Y-83322312D01*
X104543954Y-83224767D01*
X104543952Y-83224766D01*
X104345942Y-83164702D01*
X104345936Y-83164700D01*
X104140000Y-83144417D01*
X103934063Y-83164700D01*
X103934057Y-83164702D01*
X103736047Y-83224766D01*
X103736045Y-83224767D01*
X103553553Y-83322312D01*
X103393590Y-83453590D01*
X103262312Y-83613553D01*
X103164767Y-83796045D01*
X103164766Y-83796047D01*
X103104702Y-83994057D01*
X103104700Y-83994063D01*
X103084417Y-84200000D01*
X102655583Y-84200000D01*
X102635300Y-83994066D01*
X102618524Y-83938763D01*
X102575233Y-83796047D01*
X102575232Y-83796045D01*
X102477687Y-83613553D01*
X102469511Y-83603590D01*
X102346410Y-83453590D01*
X102186450Y-83322315D01*
X102186449Y-83322314D01*
X102186446Y-83322312D01*
X102003954Y-83224767D01*
X102003952Y-83224766D01*
X101805942Y-83164702D01*
X101805936Y-83164700D01*
X101600000Y-83144417D01*
X101394063Y-83164700D01*
X101394057Y-83164702D01*
X101196047Y-83224766D01*
X101196045Y-83224767D01*
X101013553Y-83322312D01*
X100853590Y-83453590D01*
X100722312Y-83613553D01*
X100624767Y-83796045D01*
X100624766Y-83796047D01*
X100564702Y-83994057D01*
X100564700Y-83994063D01*
X100544417Y-84200000D01*
X99560000Y-84200000D01*
X99560000Y-84135000D01*
X99578452Y-84090452D01*
X99623000Y-84072000D01*
X100165999Y-84072000D01*
X100165999Y-83324787D01*
X100151146Y-83250113D01*
X100094567Y-83165438D01*
X100094561Y-83165432D01*
X100009886Y-83108853D01*
X99935213Y-83094000D01*
X99188001Y-83094000D01*
X99188000Y-83094001D01*
X99188000Y-83640555D01*
X99169548Y-83685103D01*
X99125000Y-83703555D01*
X99116037Y-83702914D01*
X99095764Y-83700000D01*
X99095763Y-83700000D01*
X99024237Y-83700000D01*
X99024236Y-83700000D01*
X99003963Y-83702914D01*
X98957244Y-83690988D01*
X98932641Y-83649518D01*
X98932000Y-83640555D01*
X98932000Y-83094001D01*
X98931999Y-83094000D01*
X98184787Y-83094000D01*
X98110113Y-83108853D01*
X98025438Y-83165432D01*
X98025432Y-83165438D01*
X97968853Y-83250113D01*
X97954000Y-83324787D01*
X97954000Y-84071999D01*
X97954001Y-84072000D01*
X98497000Y-84072000D01*
X98541548Y-84090452D01*
X98560000Y-84135000D01*
X98560000Y-84265000D01*
X98541548Y-84309548D01*
X98497000Y-84328000D01*
X97954000Y-84328000D01*
X97954000Y-85075212D01*
X82203807Y-85075212D01*
X82317685Y-84936450D01*
X82415232Y-84753954D01*
X82475300Y-84555934D01*
X82495583Y-84350000D01*
X82475300Y-84144066D01*
X82429796Y-83994057D01*
X82415233Y-83946047D01*
X82415232Y-83946045D01*
X82317687Y-83763553D01*
X82317685Y-83763550D01*
X82186410Y-83603590D01*
X82026450Y-83472315D01*
X82026449Y-83472314D01*
X82026446Y-83472312D01*
X81843954Y-83374767D01*
X81843952Y-83374766D01*
X81645942Y-83314702D01*
X81645936Y-83314700D01*
X81440000Y-83294417D01*
X81234063Y-83314700D01*
X81234057Y-83314702D01*
X81036047Y-83374766D01*
X81036045Y-83374767D01*
X80853553Y-83472312D01*
X80693590Y-83603590D01*
X80562312Y-83763553D01*
X80464767Y-83946045D01*
X80464766Y-83946047D01*
X80404702Y-84144057D01*
X80404700Y-84144063D01*
X80384417Y-84349999D01*
X79955583Y-84349999D01*
X79935300Y-84144066D01*
X79889796Y-83994057D01*
X79875233Y-83946047D01*
X79875232Y-83946045D01*
X79777687Y-83763553D01*
X79777685Y-83763550D01*
X79646410Y-83603590D01*
X79486450Y-83472315D01*
X79486449Y-83472314D01*
X79486446Y-83472312D01*
X79303954Y-83374767D01*
X79303952Y-83374766D01*
X79105942Y-83314702D01*
X79105936Y-83314700D01*
X78951608Y-83299500D01*
X78900000Y-83294417D01*
X78899999Y-83294417D01*
X78694063Y-83314700D01*
X78694057Y-83314702D01*
X78496047Y-83374766D01*
X78496045Y-83374767D01*
X78313553Y-83472312D01*
X78153590Y-83603590D01*
X78022312Y-83763553D01*
X77924767Y-83946045D01*
X77924766Y-83946047D01*
X77864702Y-84144057D01*
X77864700Y-84144063D01*
X77844417Y-84349999D01*
X77415583Y-84349999D01*
X77395300Y-84144066D01*
X77349796Y-83994057D01*
X77335233Y-83946047D01*
X77335232Y-83946045D01*
X77237687Y-83763553D01*
X77237685Y-83763550D01*
X77106410Y-83603590D01*
X76946450Y-83472315D01*
X76946449Y-83472314D01*
X76946446Y-83472312D01*
X76763954Y-83374767D01*
X76763952Y-83374766D01*
X76565942Y-83314702D01*
X76565936Y-83314700D01*
X76360000Y-83294417D01*
X76154063Y-83314700D01*
X76154057Y-83314702D01*
X75956047Y-83374766D01*
X75956045Y-83374767D01*
X75773553Y-83472312D01*
X75613590Y-83603590D01*
X75482312Y-83763553D01*
X75384767Y-83946045D01*
X75384766Y-83946047D01*
X75324702Y-84144057D01*
X75324700Y-84144063D01*
X75304417Y-84350000D01*
X74875583Y-84350000D01*
X74855300Y-84144066D01*
X74809796Y-83994057D01*
X74795233Y-83946047D01*
X74795232Y-83946045D01*
X74697687Y-83763553D01*
X74697685Y-83763550D01*
X74566410Y-83603590D01*
X74406450Y-83472315D01*
X74406449Y-83472314D01*
X74406446Y-83472312D01*
X74223954Y-83374767D01*
X74223952Y-83374766D01*
X74025942Y-83314702D01*
X74025936Y-83314700D01*
X73820000Y-83294417D01*
X73614063Y-83314700D01*
X73614057Y-83314702D01*
X73416047Y-83374766D01*
X73416045Y-83374767D01*
X73233553Y-83472312D01*
X73073590Y-83603590D01*
X72942312Y-83763553D01*
X72844767Y-83946045D01*
X72844766Y-83946047D01*
X72784702Y-84144057D01*
X72784700Y-84144063D01*
X72764417Y-84349999D01*
X72335583Y-84349999D01*
X72315300Y-84144066D01*
X72269796Y-83994057D01*
X72255233Y-83946047D01*
X72255232Y-83946045D01*
X72157687Y-83763553D01*
X72157685Y-83763550D01*
X72026410Y-83603590D01*
X71866450Y-83472315D01*
X71866449Y-83472314D01*
X71866446Y-83472312D01*
X71683954Y-83374767D01*
X71683952Y-83374766D01*
X71485942Y-83314702D01*
X71485936Y-83314700D01*
X71280000Y-83294417D01*
X71074063Y-83314700D01*
X71074057Y-83314702D01*
X70876047Y-83374766D01*
X70876045Y-83374767D01*
X70693553Y-83472312D01*
X70533590Y-83603590D01*
X70402312Y-83763553D01*
X70304767Y-83946045D01*
X70304766Y-83946047D01*
X70244702Y-84144057D01*
X70244700Y-84144063D01*
X70224417Y-84349999D01*
X69795583Y-84349999D01*
X69775300Y-84144066D01*
X69729796Y-83994057D01*
X69715233Y-83946047D01*
X69715232Y-83946045D01*
X69617687Y-83763553D01*
X69617685Y-83763550D01*
X69486410Y-83603590D01*
X69326450Y-83472315D01*
X69326449Y-83472314D01*
X69326446Y-83472312D01*
X69143954Y-83374767D01*
X69143952Y-83374766D01*
X68945942Y-83314702D01*
X68945936Y-83314700D01*
X68791608Y-83299500D01*
X68740000Y-83294417D01*
X68739999Y-83294417D01*
X68534063Y-83314700D01*
X68534057Y-83314702D01*
X68336047Y-83374766D01*
X68336045Y-83374767D01*
X68153553Y-83472312D01*
X67993590Y-83603590D01*
X67862312Y-83763553D01*
X67764767Y-83946045D01*
X67764766Y-83946047D01*
X67704702Y-84144057D01*
X67704700Y-84144063D01*
X67684417Y-84349999D01*
X67255583Y-84349999D01*
X67235300Y-84144066D01*
X67189796Y-83994057D01*
X67175233Y-83946047D01*
X67175232Y-83946045D01*
X67077687Y-83763553D01*
X67077685Y-83763550D01*
X66946410Y-83603590D01*
X66786450Y-83472315D01*
X66786449Y-83472314D01*
X66786446Y-83472312D01*
X66603954Y-83374767D01*
X66603952Y-83374766D01*
X66405942Y-83314702D01*
X66405936Y-83314700D01*
X66200000Y-83294417D01*
X65994063Y-83314700D01*
X65994057Y-83314702D01*
X65796047Y-83374766D01*
X65796045Y-83374767D01*
X65613553Y-83472312D01*
X65453590Y-83603590D01*
X65322312Y-83763553D01*
X65224767Y-83946045D01*
X65224766Y-83946047D01*
X65164702Y-84144057D01*
X65164700Y-84144063D01*
X65144417Y-84350000D01*
X64710500Y-84350000D01*
X64710500Y-83480252D01*
X64698867Y-83421769D01*
X64654552Y-83355448D01*
X64588231Y-83311133D01*
X64529748Y-83299500D01*
X62790252Y-83299500D01*
X62746389Y-83308224D01*
X62731768Y-83311133D01*
X62665449Y-83355447D01*
X62665447Y-83355449D01*
X62621133Y-83421768D01*
X62609499Y-83480255D01*
X62609499Y-85219744D01*
X61514714Y-85219744D01*
X61514714Y-80300000D01*
X93794318Y-80300000D01*
X93814956Y-80456763D01*
X93814956Y-80456766D01*
X93875463Y-80602839D01*
X93875464Y-80602841D01*
X93971714Y-80728278D01*
X93971721Y-80728285D01*
X94065798Y-80800472D01*
X94097159Y-80824536D01*
X94189274Y-80862691D01*
X94243235Y-80885043D01*
X94243238Y-80885044D01*
X94400000Y-80905682D01*
X94556762Y-80885044D01*
X94556764Y-80885043D01*
X94556766Y-80885043D01*
X94621365Y-80858284D01*
X94702841Y-80824536D01*
X94828282Y-80728282D01*
X94924536Y-80602841D01*
X94958284Y-80521365D01*
X94985043Y-80456766D01*
X94985043Y-80456764D01*
X94985044Y-80456762D01*
X95005682Y-80300000D01*
X98794318Y-80300000D01*
X98814956Y-80456763D01*
X98814956Y-80456766D01*
X98875463Y-80602839D01*
X98875464Y-80602841D01*
X98971714Y-80728278D01*
X98971721Y-80728285D01*
X99065798Y-80800472D01*
X99097159Y-80824536D01*
X99189274Y-80862691D01*
X99243235Y-80885043D01*
X99243238Y-80885044D01*
X99400000Y-80905682D01*
X99556762Y-80885044D01*
X99556764Y-80885043D01*
X99556766Y-80885043D01*
X99621365Y-80858284D01*
X99702841Y-80824536D01*
X99828282Y-80728282D01*
X99924536Y-80602841D01*
X99958284Y-80521365D01*
X99985043Y-80456766D01*
X99985043Y-80456764D01*
X99985044Y-80456762D01*
X100005682Y-80300000D01*
X99985044Y-80143238D01*
X99985043Y-80143235D01*
X99985043Y-80143233D01*
X99924536Y-79997160D01*
X99924535Y-79997158D01*
X99828285Y-79871721D01*
X99828278Y-79871714D01*
X99702841Y-79775464D01*
X99702839Y-79775463D01*
X99556764Y-79714956D01*
X99400000Y-79694318D01*
X99243236Y-79714956D01*
X99243233Y-79714956D01*
X99097160Y-79775463D01*
X99097158Y-79775464D01*
X98971721Y-79871714D01*
X98971714Y-79871721D01*
X98875464Y-79997158D01*
X98875463Y-79997160D01*
X98814956Y-80143233D01*
X98814956Y-80143236D01*
X98794318Y-80299999D01*
X98794318Y-80300000D01*
X95005682Y-80300000D01*
X94985044Y-80143238D01*
X94985043Y-80143235D01*
X94985043Y-80143233D01*
X94924536Y-79997160D01*
X94924535Y-79997158D01*
X94828285Y-79871721D01*
X94828278Y-79871714D01*
X94702841Y-79775464D01*
X94702839Y-79775463D01*
X94556764Y-79714956D01*
X94400000Y-79694318D01*
X94243236Y-79714956D01*
X94243233Y-79714956D01*
X94097160Y-79775463D01*
X94097158Y-79775464D01*
X93971721Y-79871714D01*
X93971714Y-79871721D01*
X93875464Y-79997158D01*
X93875463Y-79997160D01*
X93814956Y-80143233D01*
X93814956Y-80143236D01*
X93794318Y-80299999D01*
X93794318Y-80300000D01*
X61514714Y-80300000D01*
X61514714Y-77515243D01*
X61514780Y-77513200D01*
X61520196Y-77430555D01*
X61533333Y-77246859D01*
X61533854Y-77242989D01*
X61557364Y-77124791D01*
X61589112Y-76978848D01*
X61590049Y-76975469D01*
X61631023Y-76854765D01*
X61680918Y-76720992D01*
X61682151Y-76718135D01*
X61739793Y-76601248D01*
X61807045Y-76478085D01*
X61808471Y-76475729D01*
X61881217Y-76366858D01*
X61882142Y-76365549D01*
X61965204Y-76254592D01*
X61966684Y-76252766D01*
X62053357Y-76153934D01*
X62054712Y-76152487D01*
X62152487Y-76054712D01*
X62153934Y-76053357D01*
X62252766Y-75966684D01*
X62254592Y-75965204D01*
X62365549Y-75882142D01*
X62366858Y-75881217D01*
X62475729Y-75808471D01*
X62478085Y-75807045D01*
X62601248Y-75739793D01*
X62718135Y-75682151D01*
X62720992Y-75680918D01*
X62854765Y-75631023D01*
X62975469Y-75590049D01*
X62978848Y-75589112D01*
X63124770Y-75557368D01*
X63242989Y-75533854D01*
X63246859Y-75533333D01*
X63430484Y-75520201D01*
X63513200Y-75514780D01*
X63515243Y-75514714D01*
X121984757Y-75514714D01*
X121986799Y-75514780D01*
G37*
%TD.AperFunction*%
%TD*%
M02*
